<?xml version="1.0"?>
<svg xmlns="http://www.w3.org/2000/svg" viewBox="0 0 50 50">
    <path style="line-height:normal;text-indent:0;text-align:start;text-decoration-line:none;text-decoration-style:solid;text-decoration-color:#000;text-transform:none;block-progression:tb;isolation:auto;mix-blend-mode:normal" d="M 21 2 C 20.83575 2 20.672437 2.0400938 20.523438 2.1210938 L 2.5234375 11.898438 C 2.2014375 12.073437 2 12.411344 2 12.777344 L 2 16 C 2 16.553 2.448 17 3 17 L 5 17 L 5 37 C 5 37.553 5.448 38 6 38 L 16 38 L 16 34 C 16 29.855 21.525 28 27 28 C 27.333 28 27.667 28.006484 28 28.021484 L 28 28 L 28 24 C 28 20.362 32.257 18.489938 37 18.085938 L 37 17 L 39 17 C 39.552 17 40 16.553 40 16 L 40 12.777344 C 40 12.411344 39.799516 12.073438 39.478516 11.898438 L 21.478516 2.1210938 C 21.329516 2.0400938 21.16425 2 21 2 z M 39 20 C 36.689528 20 34.596482 20.339796 32.992188 20.941406 C 32.190039 21.242212 31.504984 21.605096 30.964844 22.083984 C 30.491757 22.503423 30.125291 23.069598 30.037109 23.722656 A 1.0001 1.0001 0 0 0 30 24 L 30 28 L 30 30.212891 C 29.060129 30.078171 28.056814 30 27 30 C 24.689528 30 22.596482 30.339796 20.992188 30.941406 C 20.19004 31.242212 19.504984 31.605096 18.964844 32.083984 C 18.491757 32.503423 18.125291 33.069598 18.037109 33.722656 A 1.0001 1.0001 0 0 0 18 34 L 18 38 L 18 42 L 18 46 C 18 46.77454 18.424676 47.43712 18.964844 47.916016 C 19.505011 48.394911 20.190024 48.7578 20.992188 49.058594 C 22.596514 49.660182 24.689672 50 27 50 C 29.310328 50 31.403486 49.660182 33.007812 49.058594 C 33.809976 48.7578 34.494989 48.394911 35.035156 47.916016 C 35.575324 47.43712 36 46.77454 36 46 L 36 43.789062 C 36.939189 43.924245 37.944486 44 39 44 C 41.310328 44 43.403486 43.660182 45.007812 43.058594 C 45.809976 42.7578 46.494989 42.394911 47.035156 41.916016 C 47.575324 41.43712 48 40.77454 48 40 L 48 36 L 48 32 L 48 28 L 48 24 A 1.0001 1.0001 0 0 0 47.962891 23.71875 C 47.873722 23.067336 47.507315 22.5026 47.035156 22.083984 C 46.495016 21.605096 45.80996 21.242212 45.007812 20.941406 C 43.403518 20.339796 41.310472 20 39 20 z M 39 22 C 41.107806 22 43.015505 22.330277 44.306641 22.814453 C 44.952208 23.056541 45.437527 23.341136 45.707031 23.580078 C 45.976535 23.81902 46 23.94608 46 24 C 46 24.05392 45.97653 24.18098 45.707031 24.419922 C 45.437527 24.658864 44.952208 24.943459 44.306641 25.185547 C 43.015505 25.669723 41.107806 26 39 26 C 36.892194 26 34.984495 25.669723 33.693359 25.185547 C 33.047792 24.943459 32.562473 24.658864 32.292969 24.419922 C 32.023465 24.18098 32 24.05392 32 24 C 32 23.94608 32.02347 23.81902 32.292969 23.580078 C 32.562473 23.341136 33.047792 23.056541 33.693359 22.814453 C 34.984495 22.330277 36.892194 22 39 22 z M 32 26.609375 C 32.308871 26.773141 32.634201 26.924349 32.992188 27.058594 C 34.596482 27.660204 36.689528 28 39 28 C 41.310472 28 43.403518 27.660204 45.007812 27.058594 C 45.365799 26.924349 45.691129 26.773141 46 26.609375 L 46 28 C 46 28.05396 45.97655 28.180974 45.707031 28.419922 C 45.437511 28.65887 44.950274 28.943466 44.304688 29.185547 C 43.013514 29.669709 41.107672 30 39 30 C 36.892328 30 34.986486 29.669709 33.695312 29.185547 C 33.049726 28.943466 32.562489 28.65887 32.292969 28.419922 C 32.023449 28.180974 32 28.05396 32 28 L 32 26.609375 z M 32 30.609375 C 32.04364 30.632514 32.095962 30.649408 32.140625 30.671875 C 32.092737 30.657965 32.048538 30.642408 32 30.628906 L 32 30.609375 z M 46 30.609375 L 46 32 C 46 32.05396 45.97655 32.180974 45.707031 32.419922 C 45.437511 32.65887 44.950274 32.943466 44.304688 33.185547 C 43.013514 33.669709 41.107672 34 39 34 C 37.917904 34 36.892641 33.913699 35.972656 33.763672 A 1.0001 1.0001 0 0 0 35.962891 33.71875 C 35.873722 33.067336 35.507315 32.5026 35.035156 32.083984 C 34.702014 31.78862 34.296243 31.547884 33.859375 31.328125 C 35.32449 31.753674 37.077713 32 39 32 C 41.310328 32 43.403486 31.660182 45.007812 31.058594 C 45.365806 30.924354 45.691134 30.773142 46 30.609375 z M 27 32 C 29.107806 32 31.015505 32.330277 32.306641 32.814453 C 32.952208 33.056541 33.437527 33.341136 33.707031 33.580078 C 33.976535 33.81902 34 33.94608 34 34 C 34 34.05392 33.97653 34.18098 33.707031 34.419922 C 33.437527 34.658864 32.952208 34.943459 32.306641 35.185547 C 31.015505 35.669723 29.107806 36 27 36 C 24.892194 36 22.984495 35.669723 21.693359 35.185547 C 21.047792 34.943459 20.562473 34.658864 20.292969 34.419922 C 20.023465 34.18098 20 34.05392 20 34 C 20 33.94608 20.02347 33.81902 20.292969 33.580078 C 20.562473 33.341136 21.047792 33.056541 21.693359 32.814453 C 22.984495 32.330277 24.892194 32 27 32 z M 46 34.609375 L 46 36 C 46 36.05396 45.97655 36.180974 45.707031 36.419922 C 45.437511 36.65887 44.950274 36.943466 44.304688 37.185547 C 43.013514 37.669709 41.107672 38 39 38 C 37.928876 38 36.91308 37.914803 36 37.767578 L 36 35.789062 C 36.938752 35.924114 37.945032 36 39 36 C 41.310328 36 43.403486 35.660182 45.007812 35.058594 C 45.365806 34.924354 45.691134 34.773142 46 34.609375 z M 20 36.609375 C 20.308871 36.773141 20.634201 36.924349 20.992188 37.058594 C 22.596482 37.660204 24.689528 38 27 38 C 29.310472 38 31.403518 37.660204 33.007812 37.058594 C 33.365799 36.924349 33.691129 36.773141 34 36.609375 L 34 38 C 34 38.05396 33.97655 38.180974 33.707031 38.419922 C 33.437511 38.65887 32.950274 38.943466 32.304688 39.185547 C 31.013514 39.669709 29.107672 40 27 40 C 24.892328 40 22.986486 39.669709 21.695312 39.185547 C 21.049726 38.943466 20.562489 38.65887 20.292969 38.419922 C 20.023449 38.180974 20 38.05396 20 38 L 20 36.609375 z M 46 38.609375 L 46 40 C 46 40.05396 45.97655 40.180974 45.707031 40.419922 C 45.437511 40.65887 44.950274 40.943466 44.304688 41.185547 C 43.013514 41.669709 41.107672 42 39 42 C 37.928876 42 36.91308 41.914803 36 41.767578 L 36 39.789062 C 36.939189 39.924245 37.944486 40 39 40 C 41.310328 40 43.403486 39.660182 45.007812 39.058594 C 45.365806 38.924354 45.691134 38.773142 46 38.609375 z M 20 40.609375 C 20.308866 40.773142 20.634194 40.924354 20.992188 41.058594 C 22.596514 41.660182 24.689672 42 27 42 C 29.310328 42 31.403486 41.660182 33.007812 41.058594 C 33.365806 40.924354 33.691134 40.773142 34 40.609375 L 34 42 C 34 42.05396 33.97655 42.180974 33.707031 42.419922 C 33.437511 42.65887 32.950274 42.943466 32.304688 43.185547 C 31.013514 43.669709 29.107672 44 27 44 C 24.892328 44 22.986486 43.669709 21.695312 43.185547 C 21.049726 42.943466 20.562489 42.65887 20.292969 42.419922 C 20.023449 42.180974 20 42.05396 20 42 L 20 40.609375 z M 20 44.609375 C 20.308866 44.773142 20.634194 44.924354 20.992188 45.058594 C 22.596514 45.660182 24.689672 46 27 46 C 29.310328 46 31.403486 45.660182 33.007812 45.058594 C 33.365806 44.924354 33.691134 44.773142 34 44.609375 L 34 46 C 34 46.05396 33.97655 46.180974 33.707031 46.419922 C 33.437511 46.65887 32.950274 46.943466 32.304688 47.185547 C 31.013514 47.669709 29.107672 48 27 48 C 24.892328 48 22.986486 47.669709 21.695312 47.185547 C 21.049726 46.943466 20.562489 46.65887 20.292969 46.419922 C 20.023449 46.180974 20 46.05396 20 46 L 20 44.609375 z" font-weight="400" font-family="sans-serif" white-space="normal" overflow="visible"/>
</svg>
