<?xml version="1.0" encoding="UTF-8"?>
<svg version="1.1" xmlns="http://www.w3.org/2000/svg" width="500" height="500">
<path d="M0 0 C6.70116245 5.29391834 10.99857641 12.07782838 12.875 20.375 C13.90603389 32.88130714 12.6062454 41.53378145 4.7890625 51.33203125 C2.65492939 53.60989169 0.35192593 55.48113052 -2.125 57.375 C-0.78308594 58.08462891 -0.78308594 58.08462891 0.5859375 58.80859375 C17.29959767 67.8599904 28.9600331 79.32456122 34.625 97.82421875 C35.89772871 102.88861841 36.70473227 108.17880165 35.875 113.375 C34.25 116 34.25 116 31.875 117.375 C28.75 117.3125 28.75 117.3125 25.875 116.375 C23.89993454 113.4124018 23.45577661 111.48217367 22.93896484 108.03149414 C21.01115203 95.17391211 16.43394884 84.51586895 5.875 76.375 C-6.5446407 68.76612922 -19.44919169 66.3415127 -33.734375 69.0625 C-40.70529841 71.0261404 -46.50181708 73.8123781 -52.125 78.375 C-52.75019531 78.87644531 -53.37539062 79.37789063 -54.01953125 79.89453125 C-62.31033057 87.31831888 -65.64768644 97.19684187 -67.01269531 107.94311523 C-67.47224246 111.20744261 -67.9949958 113.20497385 -70.015625 115.84765625 C-72.125 117.375 -72.125 117.375 -75.25 117.3125 C-78.125 116.375 -78.125 116.375 -80.125 113.375 C-81.40641024 100.56089765 -76.62788606 87.6088216 -69.125 77.375 C-61.67283408 68.52396335 -52.59979298 62.18774272 -42.125 57.375 C-42.64449219 56.9625 -43.16398437 56.55 -43.69921875 56.125 C-50.9045973 50.15825399 -54.93332401 44.54721229 -57.125 35.375 C-58.12343523 23.26411028 -57.07993779 13.9507833 -49.1953125 4.515625 C-35.27810328 -9.87424415 -16.2750573 -11.00592955 0 0 Z M-41.125 13.375 C-45.73311556 19.46916467 -45.96377588 25.95899375 -45.125 33.375 C-43.74009241 39.13834619 -40.23275242 44.23969528 -35.33984375 47.6015625 C-28.70012798 51.27122649 -22.36074794 52.18614493 -15 50.3125 C-8.65139504 48.12400574 -4.17238801 44.56802932 -0.6875 38.8125 C2.03804812 32.66526809 1.97936751 25.39385218 0.21484375 18.97265625 C-2.34714341 13.19432157 -6.64309679 8.98249887 -12.3671875 6.33984375 C-23.11465126 2.44976848 -33.47177671 4.67094553 -41.125 13.375 Z " fill="#242424" transform="translate(272.125,181.625)"/>
<path d="M0 0 C5.01977246 4.24265288 8.35642438 9.76670257 9.3515625 16.3125 C9.74791328 22.98788159 7.95752479 28.58443976 4 34 C1.828125 35.28125 1.828125 35.28125 0 36 C0 36.66 0 37.32 0 38 C0.58007812 38.11214844 1.16015625 38.22429687 1.7578125 38.33984375 C10.26590025 40.84483823 15.77213686 48.92838806 19.8125 56.3125 C21.35495684 61.10223441 22.35573219 65.95014955 22 71 C20.6953125 73.30859375 20.6953125 73.30859375 19 75 C14.91834173 75.51020728 13.47042703 75.31361802 10 73 C9.19140625 70.171875 9.19140625 70.171875 8.5625 66.75 C6.90940496 58.98130985 4.73461313 54.59924799 -2 50 C-8.29068567 46.98480928 -15.70412205 46.83913978 -22.4140625 48.65234375 C-28.45567671 51.36990381 -32.6754054 55.9723552 -35.3125 62 C-36.07781017 65.09386708 -36.07781017 65.09386708 -36.4375 68.6875 C-37 72 -37 72 -38.1875 73.9375 C-40.91087907 75.5339636 -42.90953021 75.38630872 -46 75 C-47.97067232 73.48837841 -48.86953878 72.56415661 -49.43359375 70.125 C-49.45327048 59.42086064 -45.62251858 51.74114775 -38.25390625 44.10546875 C-31.71799629 38 -31.71799629 38 -28 38 C-28.49371094 37.31292969 -28.98742187 36.62585938 -29.49609375 35.91796875 C-30.13675781 35.01691406 -30.77742188 34.11585938 -31.4375 33.1875 C-32.39462891 31.84751953 -32.39462891 31.84751953 -33.37109375 30.48046875 C-36.92044353 25.0755836 -36.54902682 19.25413162 -36 13 C-34.24097593 6.34483889 -29.58341183 1.78874374 -24 -2 C-15.45564369 -5.44772272 -7.91269047 -4.4394633 0 0 Z M-22 12 C-24.45665197 15.68497796 -24.70086491 18.71971786 -24 23 C-22.20636089 25.8100346 -20.98119065 27.50940468 -18 29 C-14.94079426 29.42071592 -12.0532254 29.48514117 -9 29 C-6.24430553 26.81840855 -4.56411253 25.12822506 -3 22 C-2.87727984 17.4593539 -3.13641988 14.01597661 -6.125 10.5 C-12.55415698 7.14565723 -16.41027583 7.32023093 -22 12 Z " fill="#242424" transform="translate(185,162)"/>
<path d="M0 0 C5.41980308 3.75889569 9.28601399 7.46542834 11 14 C12.03708096 23.5043875 10.39956079 29.46725228 4.75 37 C4.1725 37.66 3.595 38.32 3 39 C3.66 39.185625 4.32 39.37125 5 39.5625 C13.75886562 43.75945644 19.87174785 51.58263088 23.375 60.5 C24.11347544 64.63546249 24.75157866 68.82995066 24 73 C22.66796875 74.7421875 22.66796875 74.7421875 21 76 C15.87574379 76.64053203 15.87574379 76.64053203 13.37109375 74.80859375 C11.58172883 72.44826338 11.42265799 70.61327785 11.0625 67.6875 C10.29217645 62.71002478 9.03866853 59.95026909 6 56 C6 55.34 6 54.68 6 54 C-2.39200942 49.6361551 -9.46713713 46.87745845 -18.859375 49.2734375 C-24.20625668 51.088255 -27.97529571 54.30649334 -31 59 C-32.71273257 63.23005113 -33.89345317 67.59568405 -35.0625 72 C-35.371875 72.99 -35.68125 73.98 -36 75 C-38.82883747 76.41441874 -40.87376745 76.31900332 -44 76 C-46.07977711 73.89615139 -46.93039561 72.57971874 -47.28515625 69.625 C-46.41192449 59.33005714 -42.39076871 50.32566814 -34.66796875 43.3359375 C-31.40069967 40.71906156 -29.24669939 39 -25 39 C-25 38.34 -25 37.68 -25 37 C-25.60328125 36.7628125 -26.2065625 36.525625 -26.828125 36.28125 C-30.96443853 33.8411226 -32.44494007 29.38244161 -34 25 C-35.23576369 18.06071158 -33.82714746 11.89312971 -30 6 C-22.18087946 -3.06622078 -10.67340862 -5.74253734 0 0 Z M-19 12 C-21.1979747 14.71083547 -21.92397877 16.48957172 -22.4375 19.9375 C-21.88393677 23.8124426 -20.40826469 25.95425348 -18 29 C-14.54260443 30.72869779 -10.78024432 30.48966895 -7 30 C-4.12970131 28.20606332 -2.50868362 27.01736724 -1 24 C-0.4825345 18.24789672 -0.4825345 18.24789672 -2.75 13.125 C-8.16546638 8.01039287 -12.642354 8.07719715 -19 12 Z " fill="#252525" transform="translate(340,161)"/>
<path d="M0 0 C-1.3881735 3.12857014 -3.01101878 5.28189174 -5.4375 7.6875 C-6.03433594 8.28949219 -6.63117188 8.89148438 -7.24609375 9.51171875 C-9 11 -9 11 -12 12 C-10.53033642 8.60140297 -8.61962486 6.35036291 -6 3.75 C-5.29875 3.04359375 -4.5975 2.3371875 -3.875 1.609375 C-2 0 -2 0 0 0 Z " fill="#6F6F6F" transform="translate(215,249)"/>
<path d="M0 0 C0.66 0.33 1.32 0.66 2 1 C0.90344712 2.31886772 -0.20253423 3.62990057 -1.3125 4.9375 C-1.92738281 5.66839844 -2.54226562 6.39929688 -3.17578125 7.15234375 C-5 9 -5 9 -8 10 C-6.34908222 5.70761377 -3.26245434 3.1206085 0 0 Z " fill="#6E6E6E" transform="translate(150,203)"/>
<path d="M0 0 C0.66 0.33 1.32 0.66 2 1 C-2.625 6.875 -2.625 6.875 -6 8 C-4.55746343 4.63408134 -2.66735273 2.48952921 0 0 Z " fill="#767676" transform="translate(158,162)"/>
</svg>
