<?xml version="1.0" standalone="no"?>
<!DOCTYPE svg PUBLIC "-//W3C//DTD SVG 20010904//EN"
 "http://www.w3.org/TR/2001/REC-SVG-20010904/DTD/svg10.dtd">
<svg version="1.0" xmlns="http://www.w3.org/2000/svg"
 width="64.000000pt" height="64.000000pt" viewBox="0 0 64.000000 64.000000"
 preserveAspectRatio="xMidYMid meet">

<g transform="translate(0.000000,64.000000) scale(0.100000,-0.100000)"
fill="#000000" stroke="none">
<path d="M394 601 c-41 -19 -75 -57 -88 -98 -6 -20 -14 -23 -61 -23 -60 0 -85
-16 -85 -55 0 -23 -4 -24 -67 -27 l-68 -3 -3 -94 c-2 -71 1 -99 13 -117 8 -13
15 -45 15 -74 0 -37 5 -55 20 -70 19 -19 33 -20 220 -20 187 0 201 1 220 20
15 15 20 34 20 73 1 30 7 60 15 71 10 13 15 43 15 86 0 54 4 70 20 85 46 42
51 138 10 196 -25 34 -90 69 -130 69 -14 0 -43 -9 -66 -19z m147 -57 c29 -28
46 -81 35 -109 -8 -23 -46 -1 -46 27 0 30 -38 68 -69 68 -32 0 -71 -37 -71
-66 0 -29 -37 -53 -46 -29 -16 42 26 118 76 138 32 13 92 -1 121 -29z m-56
-84 c0 -18 -6 -26 -23 -28 -24 -4 -38 18 -28 44 3 9 15 14 28 12 17 -2 23 -10
23 -28z m-185 -24 c0 -2 3 -11 6 -20 5 -13 -3 -16 -50 -16 -49 0 -56 2 -56 20
0 17 7 20 50 20 28 0 50 -2 50 -4z m125 -36 c9 -14 58 -13 73 2 10 10 16 8 29
-5 16 -16 16 -18 0 -34 -41 -41 -172 -10 -137 31 14 18 26 20 35 6z m-70 -60
c24 -27 80 -43 127 -37 l39 5 -3 -51 -3 -52 -225 0 -225 0 -3 78 -3 77 139 0
c125 0 141 -2 157 -20z m-185 -200 c0 -13 7 -20 20 -20 13 0 20 7 20 20 0 18
7 20 80 20 73 0 80 -2 80 -20 0 -13 7 -20 20 -20 13 0 20 7 20 20 0 17 7 20
41 20 l40 0 -3 -47 -3 -48 -195 0 -195 0 -3 48 -3 47 40 0 c34 0 41 -3 41 -20z"/>
<path d="M210 280 c0 -18 7 -20 80 -20 73 0 80 2 80 20 0 18 -7 20 -80 20 -73
0 -80 -2 -80 -20z"/>
</g>
</svg>
