<?xml version="1.0" standalone="no"?>
<!DOCTYPE svg PUBLIC "-//W3C//DTD SVG 20010904//EN"
 "http://www.w3.org/TR/2001/REC-SVG-20010904/DTD/svg10.dtd">
<svg version="1.0" xmlns="http://www.w3.org/2000/svg"
 width="96.000000pt" height="96.000000pt" viewBox="0 0 96.000000 96.000000"
 preserveAspectRatio="xMidYMid meet">

<g transform="translate(0.000000,96.000000) scale(0.100000,-0.100000)"
fill="#000000" stroke="none">
<path d="M395 821 c-129 -60 -164 -212 -74 -324 17 -21 29 -39 28 -41 -2 -1
-20 -12 -41 -24 -80 -49 -142 -143 -154 -236 -7 -46 -7 -46 24 -46 28 0 30 3
36 44 11 70 63 146 126 183 65 40 87 41 100 8 14 -36 66 -36 80 0 11 30 28 31
79 5 76 -38 134 -117 147 -199 6 -37 9 -41 37 -41 30 0 30 0 23 46 -12 93 -74
187 -154 236 -21 12 -39 23 -41 24 -1 2 11 20 28 41 68 84 67 192 -2 270 -61
69 -161 92 -242 54z m155 -61 c45 -23 80 -80 80 -130 0 -76 -74 -150 -151
-150 -73 0 -149 76 -149 150 0 48 35 107 78 129 48 26 93 26 142 1z"/>
<path d="M450 328 c0 -2 -7 -41 -15 -88 -8 -47 -15 -86 -15 -87 0 -2 27 -3 60
-3 33 0 60 1 60 3 0 1 -7 40 -15 87 -8 47 -15 86 -15 88 0 1 -13 2 -30 2 -16
0 -30 -1 -30 -2z"/>
</g>
</svg>
