<?xml version="1.0" encoding="UTF-8"?>
<svg version="1.1" xmlns="http://www.w3.org/2000/svg" width="512" height="512">
<path d="M0 0 C5.19432367 4.68756039 7.30245629 7.80190986 7.8125 14.6875 C7.42948888 20.24116119 5.60162194 23.59514146 1.48754883 27.23974609 C-2.41770107 30.50590937 -6.50338885 32.46477608 -11.17578125 34.4140625 C-12.00636551 34.77274414 -12.83694977 35.13142578 -13.69270325 35.50097656 C-15.46173751 36.26355611 -17.23312271 37.02070183 -19.00665283 37.77276611 C-21.77765742 38.94924242 -24.54080368 40.14257434 -27.30224609 41.34130859 C-30.97486148 42.93502351 -34.64907443 44.52489403 -38.32568359 46.109375 C-39.19223572 46.48288086 -40.05878784 46.85638672 -40.95159912 47.24121094 C-42.53067359 47.92170678 -44.1098088 48.60206172 -45.68902588 49.28222656 C-49.99314115 51.13891846 -54.28110274 53.02881465 -58.5625 54.9375 C-59.58384033 55.37271973 -60.60518066 55.80793945 -61.6574707 56.25634766 C-69.80434223 59.9226143 -75.35647708 64.77321951 -78.78826904 73.19143677 C-80.1387748 77.60359254 -80.41294651 82.18822789 -80.82421875 86.765625 C-80.93095413 87.86163025 -81.03768951 88.9576355 -81.1476593 90.08685303 C-81.37054727 92.39934521 -81.58789994 94.7123768 -81.80004883 97.02587891 C-82.12276102 100.53813191 -82.4631955 104.0483138 -82.80664062 107.55859375 C-83.02188463 109.81500413 -83.23611025 112.07151193 -83.44921875 114.328125 C-83.54917648 115.36495422 -83.64913422 116.40178345 -83.75212097 117.47003174 C-85.28858482 130.31041481 -85.28858482 130.31041481 -82.6875 142.6875 C-82.36265625 143.45835937 -82.0378125 144.22921875 -81.703125 145.0234375 C-73.70818664 159.48341861 -50.21207364 164.04436776 -35.4453125 168.42578125 C38.35233764 189.64756518 111.86473888 187.4393184 184.5 162.6875 C186.09001831 162.1474231 186.09001831 162.1474231 187.7121582 161.59643555 C198.86669802 157.69168027 208.70736539 154.21848587 214.12060547 143.1171875 C219.00536384 131.48206141 214.95611685 114.3218405 213.70092773 102.14697266 C213.37361102 98.92382248 213.07619756 95.69873268 212.77929688 92.47265625 C212.56953046 90.39044063 212.35800359 88.30840145 212.14453125 86.2265625 C212.06096878 85.27842682 211.97740631 84.33029114 211.89131165 83.35342407 C210.98408343 75.08772983 208.52141708 67.64949892 202.22680664 61.92504883 C198.70789139 59.2206671 194.98228075 57.29548502 190.93359375 55.51171875 C189.84237465 55.01462654 189.84237465 55.01462654 188.72911072 54.50749207 C186.34641484 53.42807121 183.95574203 52.36831587 181.5625 51.3125 C180.73550598 50.94545959 179.90851196 50.57841919 179.05645752 50.20025635 C172.0188913 47.08028493 164.96022874 44.0092572 157.90014648 40.94067383 C129.1300546 28.4250758 129.1300546 28.4250758 124.5625 21.3125 C122.94149346 16.44948037 123.17188715 12.5711414 124.6875 7.6875 C127.13764448 3.27723994 129.98875117 0.59937442 134.5625 -1.6875 C143.71413234 -2.91440606 150.56791957 -0.1183522 158.75 3.6875 C160.02484992 4.26427046 161.3005107 4.83925145 162.5769043 5.41259766 C165.36933654 6.67016997 168.15606234 7.93952381 170.94042969 9.21484375 C175.07392435 11.10063473 179.2297753 12.93217512 183.3924408 14.75253296 C187.0014253 16.33109906 190.60534379 17.92103112 194.20864868 19.51251221 C195.9707827 20.28903627 197.73441437 21.06217161 199.49960327 21.83172607 C217.37883687 29.64493226 217.37883687 29.64493226 224.5625 36.3125 C225.43261719 37.07175781 226.30273438 37.83101563 227.19921875 38.61328125 C241.48383709 52.62581162 244.15808218 68.66723749 246.19042969 87.82617188 C246.57983358 91.47491702 246.99674391 95.11997503 247.4140625 98.765625 C252.12017116 141.09088582 252.12017116 141.09088582 245.5625 156.3125 C245.23507812 157.16457031 244.90765625 158.01664063 244.5703125 158.89453125 C237.95309909 174.23004407 223.89217968 183.93852771 208.97924805 190.11767578 C117.15455329 226.48509925 14.89866838 226.59305287 -79.3671875 189.16992188 C-96.61203716 181.6663238 -108.25127358 170.84080888 -115.4375 153.3125 C-121.09652323 136.73677948 -118.14412157 118.59546842 -116.46606445 101.54785156 C-116.12440367 98.0564061 -115.80078053 94.56359555 -115.47851562 91.0703125 C-115.26149756 88.81239585 -115.04343453 86.55457934 -114.82421875 84.296875 C-114.73033371 83.27156677 -114.63644867 82.24625854 -114.53971863 81.18988037 C-112.80966664 64.06677042 -107.7997102 50.54660439 -95.4375 38.3125 C-94.84582031 37.68730469 -94.25414063 37.06210937 -93.64453125 36.41796875 C-81.92989405 24.96193281 -62.90325098 19.40705465 -48.20214844 12.97705078 C-44.93502335 11.54000865 -41.68668474 10.06424317 -38.44155884 8.57829285 C-35.76333846 7.3551608 -33.07775599 6.14876276 -30.39093018 4.94467163 C-29.10606731 4.36442587 -27.82432066 3.77722093 -26.54608154 3.18252563 C-17.82972622 -0.86574358 -9.18954365 -4.51123052 0 0 Z " fill="#000000" transform="translate(190.4375,267.6875)"/>
<path d="M0 0 C2.42530535 2.2381688 4.7163755 4.5745981 7.00610352 6.95239258 C7.81563477 7.75418945 8.62516602 8.55598633 9.45922852 9.38208008 C33.3556916 34.17262851 38.58974975 73.39239404 38.29150391 106.25048828 C37.55305843 140.94593223 30.25571826 175.94773385 5.56860352 201.76489258 C-13.46701573 219.98001099 -37.87005452 226.39701184 -63.55639648 226.32739258 C-64.30990387 226.32684875 -65.06341125 226.32630493 -65.8397522 226.32574463 C-77.32640953 226.28760781 -88.03969633 225.62273143 -98.99389648 221.95239258 C-99.65325195 221.73276855 -100.31260742 221.51314453 -100.99194336 221.28686523 C-124.50539236 213.24608512 -141.916319 196.32915964 -152.92114258 174.2902832 C-171.10974123 134.65122524 -171.13695826 82.48931356 -156.54858398 41.83911133 C-147.68590181 18.2228247 -132.51690203 -0.10798835 -109.68139648 -11.23510742 C-76.50623142 -25.90572877 -28.47086578 -24.78354683 0 0 Z M-108.99389648 27.95239258 C-109.59717773 28.45125977 -110.20045898 28.95012695 -110.82202148 29.46411133 C-127.31930003 44.21505633 -131.60179542 69.97523601 -132.99389648 90.95239258 C-134.11038292 119.62376419 -132.88075018 153.05595793 -112.61889648 175.57739258 C-101.86847875 186.85855767 -86.95950871 192.76922778 -71.51733398 193.28833008 C-50.15680733 193.5587353 -32.42316331 191.7106827 -16.27514648 176.35473633 C3.50848331 155.5209481 5.62183527 124.03300536 5.18969727 96.78442383 C4.57540844 73.3613238 0.36460438 47.43838492 -16.72045898 30.06176758 C-31.2043765 16.62308123 -48.55054614 12.22916017 -67.97827148 12.66723633 C-83.28658469 13.56134358 -97.3709627 17.61338752 -108.99389648 27.95239258 Z " fill="#000000" transform="translate(319.993896484375,46.047607421875)"/>
</svg>
