<?xml version="1.0" standalone="no"?>
<!DOCTYPE svg PUBLIC "-//W3C//DTD SVG 20010904//EN"
 "http://www.w3.org/TR/2001/REC-SVG-20010904/DTD/svg10.dtd">
<svg version="1.0" xmlns="http://www.w3.org/2000/svg"
 width="641.000000pt" height="481.000000pt" viewBox="0 0 641.000000 481.000000"
 preserveAspectRatio="xMidYMid meet">

<g transform="translate(0.000000,481.000000) scale(0.100000,-0.100000)"
fill="#000000" stroke="none">
<path d="M2869 4784 c-7 -9 -20 -19 -29 -23 -18 -7 -462 -302 -470 -312 -3 -3
-9 -8 -15 -10 -5 -2 -84 -53 -174 -114 -90 -60 -171 -115 -180 -120 -45 -28
-227 -150 -231 -156 -3 -3 -9 -8 -15 -10 -5 -2 -84 -53 -174 -114 -90 -60
-171 -115 -180 -120 -62 -38 -221 -147 -226 -155 -4 -7 75 -10 223 -10 l230 0
107 73 c59 39 114 77 123 82 10 6 64 42 121 80 57 39 111 75 120 80 9 6 59 39
111 74 52 36 118 80 145 98 28 18 60 40 73 50 13 9 32 22 42 27 10 6 171 113
357 239 404 271 378 262 514 170 46 -31 167 -112 269 -179 102 -68 190 -127
195 -131 16 -12 126 -87 146 -99 10 -5 28 -18 41 -27 21 -16 156 -106 197
-132 13 -9 296 -197 367 -245 12 -8 70 -48 130 -87 l107 -73 229 0 c125 0 228
3 228 8 0 4 -45 36 -100 72 -55 35 -100 67 -100 71 0 4 -8 9 -17 12 -10 2
-353 228 -762 501 l-743 496 -323 0 c-284 0 -324 -2 -336 -16z"/>
<path d="M3000 4340 c-113 -77 -210 -140 -217 -140 -6 0 -13 -4 -15 -9 -1 -5
-46 -37 -98 -72 -52 -34 -97 -66 -100 -69 -3 -4 -10 -9 -15 -11 -6 -2 -138
-89 -294 -194 -156 -104 -290 -194 -298 -200 -9 -5 -63 -42 -122 -80 l-106
-71 -3 -1747 -2 -1747 520 0 520 0 0 500 0 500 440 0 440 0 0 -500 0 -500 520
0 520 0 -2 1747 -3 1747 -106 71 c-59 38 -113 75 -122 80 -268 177 -803 540
-805 546 -2 5 -8 9 -14 9 -12 0 -222 140 -226 152 -2 4 -8 8 -13 8 -5 0 -49
27 -97 60 -49 33 -90 60 -93 59 -2 0 -96 -63 -209 -139z m-310 -1330 l0 -270
-262 2 -263 3 -3 255 c-1 140 0 260 3 267 3 10 64 13 265 13 l260 0 0 -270z
m785 0 l0 -265 -245 -3 c-135 -1 -255 0 -267 3 l-23 5 0 259 c0 198 3 261 13
264 6 3 127 5 267 4 l255 -2 0 -265z m780 0 l0 -265 -262 -3 -263 -2 0 270 0
270 263 -2 262 -3 0 -265z m-1565 -785 l0 -265 -262 2 -263 3 -3 250 c-1 137
0 255 3 262 3 10 64 13 265 13 l260 0 0 -265z m788 -2 l2 -263 -270 0 -270 0
0 258 c0 142 3 262 7 265 4 4 124 6 267 5 l261 -3 3 -262z m780 0 l2 -263
-265 0 -265 0 0 265 0 265 263 -2 262 -3 3 -262z m-1568 -783 l0 -270 -262 2
-263 3 -3 255 c-1 140 0 260 3 267 3 10 64 13 265 13 l260 0 0 -270z m785 0
l0 -265 -254 -3 c-179 -2 -258 1 -267 9 -11 9 -14 62 -14 264 0 138 3 255 7
258 4 4 124 6 267 5 l261 -3 0 -265z m780 0 l0 -265 -260 0 -260 0 -3 268 -2
267 262 -2 263 -3 0 -265z"/>
<path d="M10 2230 l0 -70 730 0 730 0 0 70 0 70 -730 0 -730 0 0 -70z"/>
<path d="M4950 2230 l0 -70 730 0 730 0 0 70 0 70 -730 0 -730 0 0 -70z"/>
<path d="M147 1963 c-4 -3 -7 -447 -7 -985 l0 -978 665 0 665 0 0 985 0 985
-658 0 c-362 0 -662 -3 -665 -7z m921 -265 c9 -9 12 -80 12 -260 0 -234 -1
-248 -19 -258 -29 -15 -493 -14 -509 2 -13 13 -18 509 -5 521 12 13 508 8 521
-5z m7 -1033 l0 -260 -267 -3 -268 -2 0 258 c0 142 3 262 7 265 4 4 124 6 267
5 l261 -3 0 -260z"/>
<path d="M4950 985 l0 -985 665 0 665 0 -2 982 -3 983 -662 3 -663 2 0 -985z
m928 466 c2 -179 -1 -258 -9 -267 -9 -11 -60 -14 -251 -14 -146 0 -247 4 -259
10 -18 10 -19 24 -19 258 0 181 3 251 12 260 9 9 77 12 268 10 l255 -3 3 -254z
m2 -786 l0 -265 -267 2 -268 3 -3 250 c-1 137 0 255 3 262 3 10 65 13 270 13
l265 0 0 -265z"/>
</g>
</svg>
