<?xml version="1.0"?>
<svg xmlns="http://www.w3.org/2000/svg" viewBox="0 0 50 50">
    <path d="M 29 1.9375 C 28.825 1.9375 28.65 1.99375 28.5 2.09375 L 10.5 11.90625 C 10.2 12.10625 10 12.4125 10 12.8125 L 10 14 C 10 14.6 10.4 15 11 15 L 12.5 15 C 12.7 15 12.9 15.00625 13 14.90625 L 29 6 L 45 14.90625 C 45.2 15.00625 45.3 15 45.5 15 L 47 15 C 47.6 15 48 14.6 48 14 L 48 12.8125 C 48 12.4125 47.8 12.10625 47.5 11.90625 L 29.5 2.09375 C 29.35 1.99375 29.175 1.9375 29 1.9375 z M 29 8.3125 L 14 16.59375 C 13.7 16.79375 13.4 16.90625 13 16.90625 L 13 20.8125 L 17.59375 18.3125 C 17.99375 18.1125 18.5 18 19 18 C 19.5 18 20.00625 18.10625 20.40625 18.40625 L 36.40625 27.1875 C 37.40625 27.6875 38 28.7125 38 29.8125 L 38 31 C 38 32.7 36.7 34 35 34 L 35 44 L 44 44 C 44.6 44 45 43.6 45 43 L 45 16.90625 C 44.7 16.90625 44.3 16.79375 44 16.59375 L 29 8.3125 z M 19 19.9375 C 18.825 19.9375 18.65 19.99375 18.5 20.09375 L 2.5 28.90625 C 2.2 29.10625 2 29.4125 2 29.8125 L 2 31 C 2 31.6 2.4 32 3 32 L 4.5 32 C 4.7 32 4.9 32.00625 5 31.90625 L 19 24 L 33 31.90625 C 33.2 32.00625 33.3 32 33.5 32 L 35 32 C 35.6 32 36 31.6 36 31 L 36 29.8125 C 36 29.4125 35.8 29.10625 35.5 28.90625 L 19.5 20.09375 C 19.35 19.99375 19.175 19.9375 19 19.9375 z M 19 26.3125 L 6 33.59375 C 5.7 33.79375 5.4 33.90625 5 33.90625 L 5 47 C 5 47.6 5.4 48 6 48 L 32 48 C 32.6 48 33 47.6 33 47 L 33 46 L 33 44 L 33 33.90625 C 32.7 33.80625 32.3 33.79375 32 33.59375 L 19 26.3125 z"/>
</svg>
