<?xml version="1.0"?>
<svg xmlns="http://www.w3.org/2000/svg" viewBox="0 0 50 50">
    <path style="text-indent:0;text-align:start;line-height:normal;text-transform:none;block-progression:tb;-inkscape-font-specification:Sans" d="M 28.90625 2 A 1.0001 1.0001 0 0 0 28.53125 2.125 L 10.53125 11.90625 A 1.0001 1.0001 0 0 0 10 12.78125 L 10 16 A 1.0001 1.0001 0 0 0 11 17 L 13 17 L 13 21.21875 L 15 20.125 L 15 16.34375 L 29 8.625 L 43 16.34375 L 43 42 L 35 42 L 35 44 L 44 44 A 1.0001 1.0001 0 0 0 45 43 L 45 17 L 47 17 A 1.0001 1.0001 0 0 0 48 16 L 48 12.78125 A 1.0001 1.0001 0 0 0 47.46875 11.90625 L 29.46875 2.125 A 1.0001 1.0001 0 0 0 28.90625 2 z M 29 4.125 L 46 13.375 L 46 15 L 44.71875 15 L 29.46875 6.625 A 1.0001 1.0001 0 0 0 28.53125 6.625 L 13.28125 15 L 12 15 L 12 13.375 L 29 4.125 z M 18.90625 20 A 1.0001 1.0001 0 0 0 18.53125 20.125 L 2.53125 28.90625 A 1.0001 1.0001 0 0 0 2 29.78125 L 2 33 A 1.0001 1.0001 0 0 0 3 34 L 5 34 L 5 47 A 1.0001 1.0001 0 0 0 6 48 L 32 48 A 1.0001 1.0001 0 0 0 33 47 L 33 34 L 35 34 A 1.0001 1.0001 0 0 0 36 33 L 36 29.78125 A 1.0001 1.0001 0 0 0 35.46875 28.90625 L 19.46875 20.125 A 1.0001 1.0001 0 0 0 18.90625 20 z M 19 22.125 L 34 30.375 L 34 32 L 32.71875 32 L 19.5 24.625 A 1.0001 1.0001 0 0 0 18.5 24.625 L 5.28125 32 L 4 32 L 4 30.375 L 19 22.125 z M 19 26.65625 L 31 33.34375 L 31 46 L 7 46 L 7 33.34375 L 19 26.65625 z" overflow="visible" font-family="Sans"/>
</svg>
