<?xml version="1.0" encoding="UTF-8"?>
<svg version="1.1" xmlns="http://www.w3.org/2000/svg" width="512" height="512">
<path d="M0 0 C24.20959755 -1.01471217 45.03046745 6.22735993 67.63171387 13.95578003 C84.7258563 19.78907942 100.49365811 23.92232301 118.5859375 24.71411133 C135.90953394 25.51242619 149.94771025 29.51913838 162.16992188 42.45019531 C167.04871368 48.19531463 170.09103951 54.16840975 172.94726562 61.09863281 C173.60725434 62.43528427 174.27287879 63.76918758 174.94726562 65.09863281 C175.5563678 64.94322525 176.16546997 64.78781769 176.79302979 64.62770081 C193.37566695 60.39724197 209.96080293 56.17667802 226.54766846 51.96282959 C229.61978683 51.18187977 232.69156975 50.39963064 235.76318359 49.61669922 C295.61043581 34.37011092 295.61043581 34.37011092 308.94726562 42.09863281 C316.92053488 47.55693672 320.91059401 54.32302325 322.68945312 63.75097656 C323.59612473 72.00718316 321.67419408 79.26260399 316.94726562 86.09863281 C312.27328591 91.7003279 307.42249658 94.77966412 300.75976562 97.59863281 C299.81818604 98.01185791 298.87660645 98.42508301 297.90649414 98.85083008 C294.59662709 100.29107305 291.27426986 101.69843853 287.94726562 103.09863281 C287.32726685 103.35988953 286.70726807 103.62114624 286.06848145 103.89031982 C278.85939108 106.92619171 271.63841851 109.93311606 264.41113281 112.92538452 C252.92230651 117.68207645 241.46286825 122.50664058 230.00976562 127.34863281 C228.11614467 128.14863603 226.22250854 128.94860333 224.32885742 129.74853516 C215.53572839 133.46383482 206.74461881 137.18386172 197.95608521 140.91001892 C186.73712986 145.66638579 175.51068582 150.40448732 164.27459717 155.12023926 C162.13176965 156.02106864 159.99060567 156.92570729 157.85009766 157.83203125 C135.68741282 167.18585274 117.22025174 170.82171256 93.11914062 171.07324219 C90.79476409 171.10041565 88.47069386 171.13789762 86.14648438 171.17675781 C81.86795042 171.24604665 77.58959953 171.29348724 73.31063843 171.32678223 C71.63987863 171.34109383 69.96914897 171.35972974 68.29849243 171.38317871 C65.91690863 171.41369135 63.53605722 171.42262433 61.15429688 171.42675781 C60.47782104 171.43904419 59.80134521 171.45133057 59.10437012 171.46398926 C44.54199741 171.40194214 29.70254522 167.04791929 15.56054688 163.90332031 C13.76083581 163.50608402 11.9610447 163.10921021 10.16117859 162.712677 C5.47931755 161.68041595 0.79834123 160.64420355 -3.88238525 159.60681152 C-11.40952217 157.93911577 -18.93785957 156.27685805 -26.46650124 154.61597061 C-29.08027795 154.0386301 -31.69356979 153.45913429 -34.30680847 152.87936401 C-35.90919609 152.52514366 -37.5115971 152.17098389 -39.11401367 151.81689453 C-39.83249481 151.65688965 -40.55097595 151.49688477 -41.29122925 151.33203125 C-46.71317145 150.13684602 -52.02649126 149.0113107 -57.58935547 148.89331055 C-58.42977386 148.87336533 -59.27019226 148.8534201 -60.13607788 148.83287048 C-61.0238089 148.81615799 -61.91153992 148.7994455 -62.82617188 148.78222656 C-64.21178818 148.75105492 -64.21178818 148.75105492 -65.62539673 148.71925354 C-68.55943781 148.65417163 -71.493564 148.59506639 -74.42773438 148.53613281 C-76.42383672 148.49290821 -78.41993064 148.44929269 -80.41601562 148.40527344 C-85.29483594 148.29853292 -90.17374137 148.19715033 -95.05273438 148.09863281 C-95.03702393 148.8454834 -95.02131348 149.59233398 -95.00512695 150.36181641 C-94.94292361 153.73234542 -94.90379018 157.10275393 -94.86523438 160.47363281 C-94.84009766 161.64925781 -94.81496094 162.82488281 -94.7890625 164.03613281 C-94.77939453 165.15761719 -94.76972656 166.27910156 -94.75976562 167.43457031 C-94.74405518 168.47145996 -94.72834473 169.50834961 -94.7121582 170.57666016 C-94.82454834 171.40891113 -94.93693848 172.24116211 -95.05273438 173.09863281 C-98.7513082 175.5643487 -101.59171158 175.40124142 -105.87304688 175.4050293 C-106.66845886 175.41335281 -107.46387085 175.42167633 -108.28338623 175.43025208 C-110.91488523 175.45436491 -113.54613659 175.46312456 -116.17773438 175.46972656 C-118.00472082 175.47869009 -119.8317065 175.48781188 -121.65869141 175.49708557 C-125.48862494 175.51358031 -129.31847098 175.52127689 -133.1484375 175.52416992 C-138.06176171 175.52956225 -142.97426706 175.56727485 -147.88735962 175.61291409 C-151.66026841 175.64261608 -155.43297808 175.64989193 -159.20599365 175.65089607 C-161.0177588 175.65511005 -162.82952392 175.66759133 -164.64117432 175.68841362 C-167.1722087 175.71519448 -169.7013194 175.71054428 -172.23242188 175.69799805 C-173.35931427 175.72024948 -173.35931427 175.72024948 -174.50897217 175.74295044 C-176.59912109 175.71336365 -176.59912109 175.71336365 -180.05273438 175.09863281 C-183.02046405 171.34703321 -183.42766179 168.42067408 -183.42695618 163.71580505 C-183.43397049 162.4273468 -183.4409848 161.13888855 -183.44821167 159.81138611 C-183.44078462 158.39077602 -183.4330535 156.9701675 -183.42504883 155.54956055 C-183.42747777 154.04794055 -183.4311981 152.54632217 -183.43611145 151.04470825 C-183.44550923 146.97246504 -183.43610487 142.90046264 -183.42277932 138.82823825 C-183.41145632 134.56599823 -183.41557294 130.30376991 -183.41752625 126.04151917 C-183.41840886 118.88514271 -183.40733493 111.72886105 -183.38891602 104.57250977 C-183.36774081 96.29784761 -183.36424043 88.02332424 -183.37047797 79.74864048 C-183.37617148 71.78817375 -183.37052664 63.8277559 -183.35930443 55.86729622 C-183.3546591 52.4794226 -183.3537843 49.09157887 -183.35589027 45.70370293 C-183.35777317 41.71541658 -183.34966919 37.7272716 -183.33382988 33.73901749 C-183.32958571 32.27488477 -183.32873738 30.81073771 -183.33152008 29.34660149 C-183.33474049 27.34922013 -183.32443767 25.35183055 -183.31343079 23.35447693 C-183.31137792 22.23638358 -183.30932505 21.11829023 -183.30720997 19.96631527 C-183.05446748 17.11816316 -182.62311538 15.46617302 -181.05273438 13.09863281 C-177.99407281 11.56930203 -174.79428814 11.94253301 -171.43774414 11.9375 C-170.65223175 11.9325351 -169.86671936 11.92757019 -169.05740356 11.92245483 C-166.45297376 11.90782223 -163.84860482 11.90102994 -161.24414062 11.89550781 C-159.43814593 11.88975794 -157.63215126 11.88400019 -155.82615662 11.87823486 C-152.03734044 11.86772221 -148.24854551 11.86188105 -144.4597168 11.85839844 C-139.59927877 11.85290848 -134.73912016 11.82887096 -129.87876987 11.80042648 C-126.14791537 11.78182632 -122.41712858 11.77659594 -118.68623161 11.77506256 C-116.89402677 11.77203033 -115.10182327 11.76398268 -113.30966377 11.75087738 C-110.80526417 11.7338689 -108.30155267 11.73568398 -105.79711914 11.7421875 C-104.68189629 11.72836533 -104.68189629 11.72836533 -103.54414368 11.71426392 C-98.54325608 11.75505407 -98.54325608 11.75505407 -96.08999634 13.47340393 C-94.61892828 15.7783398 -94.7126241 17.48560692 -94.75976562 20.20410156 C-94.76943359 21.18701172 -94.77910156 22.16992188 -94.7890625 23.18261719 C-94.81419922 24.20677734 -94.83933594 25.2309375 -94.86523438 26.28613281 C-94.88553711 27.83977539 -94.88553711 27.83977539 -94.90625 29.42480469 C-94.94162049 31.9832698 -94.99097893 34.54069061 -95.05273438 37.09863281 C-84.92002146 36.63762239 -79.62711419 34.283273 -71.92773438 27.84863281 C-51.74150806 11.03137998 -26.20381493 1.25907959 0 0 Z M-43.05273438 24.09863281 C-43.98730469 24.56140625 -44.921875 25.02417969 -45.88476562 25.50097656 C-54.1584037 29.77391411 -61.3800405 35.31461078 -68.59960938 41.16113281 C-69.36789063 41.77988281 -70.13617188 42.39863281 -70.92773438 43.03613281 C-71.91386719 43.85404297 -71.91386719 43.85404297 -72.91992188 44.68847656 C-79.83773112 49.26233945 -86.73977231 48.50484981 -95.05273438 49.09863281 C-95.05273438 77.47863281 -95.05273438 105.85863281 -95.05273438 135.09863281 C-84.82273437 135.42863281 -74.59273437 135.75863281 -64.05273438 136.09863281 C-49.78296808 137.14828183 -36.41634746 139.46113598 -22.50976562 142.63378906 C-20.51992631 143.07809573 -18.52982313 143.52122214 -16.53947449 143.96324158 C-11.36401879 145.11520888 -6.1915786 146.28013174 -1.01989746 147.44891357 C7.29158638 149.32537345 15.60717396 151.18348201 23.92357826 153.03799248 C26.80556716 153.68293647 29.68595844 154.33465783 32.56620789 154.98731995 C34.34056373 155.38537423 36.11496039 155.78324664 37.8894043 156.1809082 C39.07011253 156.45132431 39.07011253 156.45132431 40.27467346 156.72720337 C47.13528975 158.25442346 54.0245279 159.22123195 61.06445312 159.23144531 C62.44334717 159.23470825 62.44334717 159.23470825 63.85009766 159.23803711 C64.83091309 159.23328369 65.81172852 159.22853027 66.82226562 159.22363281 C67.87655762 159.21952393 68.93084961 159.21541504 70.01708984 159.21118164 C73.66074422 159.18695314 77.3038333 159.14561247 80.94726562 159.09863281 C81.64956299 159.09003235 82.35186035 159.08143188 83.07543945 159.0725708 C87.64672981 159.01436273 92.21710658 158.93496457 96.78765869 158.83416748 C98.28606776 158.8026629 99.78457272 158.77537633 101.28314209 158.75274658 C116.38394997 158.51249776 129.95894939 155.99544612 144.00976562 150.22363281 C145.20239014 149.74458496 146.39501465 149.26553711 147.6237793 148.77197266 C158.31975152 144.45550502 168.89476723 139.85393086 179.46069336 135.23040771 C187.44625208 131.73691732 195.46632177 128.33203152 203.50976562 124.97363281 C206.08927208 123.89569769 208.66867106 122.8175055 211.24804688 121.73925781 C211.92283585 121.45723511 212.59762482 121.1752124 213.29286194 120.88464355 C228.68025261 114.44990243 244.04031183 107.94983319 259.39892578 101.44677734 C263.02518056 99.91146307 266.65245831 98.37861088 270.28076172 96.84814453 C274.39212306 95.11359348 278.50085133 93.37295513 282.60754395 91.62738037 C284.10769935 90.99084968 285.60873852 90.3563972 287.11071777 89.72418213 C289.17201569 88.85606106 291.22989745 87.9802903 293.28710938 87.10253906 C294.4355835 86.61599854 295.58405762 86.12945801 296.76733398 85.62817383 C302.09976173 83.06328632 306.47293401 80.57170478 309.25585938 75.15722656 C310.99799752 69.97018249 310.55739964 64.89513852 308.82226562 59.78613281 C305.74320678 55.37281513 301.92397351 52.24288177 296.94726562 50.09863281 C288.37241256 49.3355429 280.25223996 51.52644779 271.95117188 53.43847656 C270.36113796 53.79820825 268.77109565 54.1579028 267.18104553 54.51756287 C246.55384813 59.22438785 226.10484117 64.6620904 205.64428711 70.0378418 C169.21033856 79.60085628 132.48662952 89.17582361 94.63476562 89.53613281 C93.50580368 89.55472855 93.50580368 89.55472855 92.35403442 89.57369995 C75.2719435 89.80741973 58.28900892 87.05806528 44.25976562 76.53613281 C41.75767168 73.89879055 41.03955731 72.69800847 40.94726562 69.09863281 C41.38476563 66.78613281 41.38476563 66.78613281 41.94726562 65.09863281 C47.22922594 64.62632638 49.70180736 65.86410547 54.00976562 68.84863281 C81.24824205 86.81653925 120.58834595 77.56568956 150.44329834 71.49237061 C154.28022429 70.70524605 158.11453454 69.90591526 161.94726562 69.09863281 C158.26498426 57.29142153 152.54083852 48.52191758 141.86132812 41.78222656 C132.21823016 36.92482963 120.64889811 36.85410962 110.04321289 36.61547852 C96.71841489 36.13408455 84.16601561 32.49501378 71.66702271 28.14251709 C67.74520052 26.77830926 63.80985862 25.45390762 59.87695312 24.12207031 C59.10511185 23.85955475 58.33327057 23.59703918 57.53804016 23.3265686 C22.87920915 11.54994585 -9.20721988 6.80751849 -43.05273438 24.09863281 Z M-170.05273438 24.09863281 C-170.05273438 69.96863281 -170.05273438 115.83863281 -170.05273438 163.09863281 C-149.26273437 163.09863281 -128.47273437 163.09863281 -107.05273438 163.09863281 C-107.05273438 117.22863281 -107.05273438 71.35863281 -107.05273438 24.09863281 C-127.84273438 24.09863281 -148.63273438 24.09863281 -170.05273438 24.09863281 Z " fill="#000000" transform="translate(186.052734375,298.9013671875)"/>
<path d="M0 0 C3.015625 1.40625 3.015625 1.40625 6.25 3.5 C7.56515082 4.33011731 8.88167622 5.15805901 10.19921875 5.984375 C10.94478027 6.45681641 11.6903418 6.92925781 12.45849609 7.41601562 C17.02709634 10.26338147 21.6728364 12.9815242 26.30969238 15.71582031 C28.67106198 17.10905962 31.02989868 18.506559 33.38882446 19.90393066 C40.8058356 24.2971709 48.22799115 28.68171495 55.65063477 33.06542969 C63.518008 37.71267871 71.37867738 42.37121257 79.23876953 47.03076172 C86.8224393 51.52629111 94.40897498 56.01690223 102 60.5 C111.20415233 65.93609437 120.40261258 71.38174901 129.59692383 76.83447266 C135.44643218 80.30334297 141.29855042 83.76763512 147.15625 87.22265625 C181.47578406 107.47578406 181.47578406 107.47578406 184 110 C184.3125 113.375 184.3125 113.375 184 117 C181.2594853 119.6878199 179.2959762 120.37324117 175.50683594 120.34057617 C174.18591949 120.34023628 174.18591949 120.34023628 172.83831787 120.33988953 C171.42561615 120.31666374 171.42561615 120.31666374 169.984375 120.29296875 C168.52792572 120.28660149 168.52792572 120.28660149 167.04205322 120.28010559 C163.94441869 120.26332853 160.84743751 120.22567772 157.75 120.1875 C155.6484469 120.17245192 153.5468836 120.15876373 151.4453125 120.14648438 C146.29662371 120.11342811 141.14842259 120.06165208 136 120 C136.00368717 120.84760045 136.00737434 121.6952009 136.01117325 122.56848621 C136.09943517 143.17380165 136.16566615 163.77908459 136.20724869 184.38454914 C136.22789118 194.34912712 136.25604393 204.31357907 136.30175781 214.27807617 C136.34157402 222.96115059 136.36742053 231.64413375 136.37635398 240.32729691 C136.3815776 244.926807 136.39388978 249.52605599 136.42292023 254.12548256 C136.45000707 258.45189886 136.45845873 262.77794574 136.45243073 267.10443878 C136.45353399 268.69479312 136.46152806 270.28515942 136.4768219 271.8754406 C136.49664568 274.04248474 136.49196863 276.20812354 136.48101807 278.37519836 C136.48470524 279.58919972 136.48839241 280.80320108 136.49219131 282.05399036 C136 285 136 285 134.13009262 286.8906126 C131.49070897 288.26524717 129.93718824 288.45187511 127 288 C125.37230682 286.91307831 125.37230682 286.91307831 124 285 C123.61688995 281.90619659 123.61688995 281.90619659 123.60559082 278.01574707 C123.59949972 277.30067883 123.59340861 276.58561059 123.58713293 275.84887362 C123.57044939 273.44661487 123.57528616 271.04488308 123.58007812 268.64257812 C123.57274095 266.92288154 123.56415576 265.20318989 123.55441284 263.48350525 C123.53215289 258.80796731 123.52926833 254.13260537 123.53116035 249.45702171 C123.53127983 245.55765792 123.52272523 241.65833173 123.51438284 237.75897837 C123.49513326 228.56276358 123.49227087 219.36663957 123.49902344 210.17041016 C123.5056684 200.67323721 123.48278516 191.17645224 123.44570971 181.67935801 C123.41505841 173.53322303 123.40364761 165.38721316 123.40754652 157.24102163 C123.40961847 152.37215593 123.40406611 147.50359216 123.37965393 142.63478088 C123.35746413 138.05787554 123.35919931 133.48160321 123.37958145 128.90469551 C123.38300516 127.22243831 123.37784418 125.54013913 123.36359787 123.85793877 C123.34552269 121.56596256 123.35806284 119.27616104 123.37854004 116.98425293 C123.37782753 115.70040459 123.37711502 114.41655624 123.37638092 113.09380341 C124 110 124 110 126.37140656 108.09050751 C129.25122853 106.89577445 131.40959315 106.57515103 134.51953125 106.48828125 C135.54111328 106.45283203 136.56269531 106.41738281 137.61523438 106.38085938 C138.67033203 106.35830078 139.72542969 106.33574219 140.8125 106.3125 C142.42415039 106.26125977 142.42415039 106.26125977 144.06835938 106.20898438 C146.71213533 106.12673357 149.35558921 106.05750791 152 106 C130.17889426 92.87023069 108.27485544 79.88364058 86.34692383 66.93310547 C78.48033864 62.28638833 70.62050623 57.62830347 62.76123047 52.96923828 C54.30618721 47.95716674 45.84778679 42.95084881 37.3828125 37.95556641 C32.81644512 35.25976924 28.25376932 32.55794941 23.69726562 29.84552002 C21.23591248 28.38036325 18.77370632 26.9166427 16.31152344 25.45288086 C15.11770885 24.74254509 13.92433827 24.0314625 12.73144531 23.31958008 C11.06166709 22.32315293 9.39023524 21.3294985 7.71875 20.3359375 C6.75904297 19.76407715 5.79933594 19.1922168 4.81054688 18.60302734 C3.88306641 18.07402832 2.95558594 17.5450293 2 17 C0.49469727 16.08275146 0.49469727 16.08275146 -1.04101562 15.14697266 C-3.90250789 13.69305977 -3.90250789 13.69305977 -6.53515625 14.73828125 C-7.36917969 15.25777344 -8.20320312 15.77726562 -9.0625 16.3125 C-10.01229736 16.88661621 -10.96209473 17.46073242 -11.94067383 18.05224609 C-12.95025146 18.69500488 -13.9598291 19.33776367 -15 20 C-17.17056519 21.32553348 -19.34113827 22.65105405 -21.51171875 23.9765625 C-22.60274902 24.65493164 -23.6937793 25.33330078 -24.81787109 26.03222656 C-29.43842804 28.889499 -34.12520881 31.62919037 -38.8125 34.375 C-40.6217416 35.44421702 -42.4303217 36.51455406 -44.23828125 37.5859375 C-45.16463379 38.13475586 -46.09098633 38.68357422 -47.04541016 39.24902344 C-48.0204248 39.8268457 -48.99543945 40.40466797 -50 41 C-51.06653809 41.63196289 -52.13307617 42.26392578 -53.23193359 42.91503906 C-57.81211928 45.62907586 -62.39220868 48.34327477 -66.97192383 51.05810547 C-73.97805478 55.21088288 -80.98724642 59.35841703 -88 63.5 C-96.06646136 68.264159 -104.12829493 73.03607626 -112.1875 77.8125 C-113.30608398 78.47540039 -114.42466797 79.13830078 -115.57714844 79.82128906 C-120.91798609 82.9867384 -126.25834366 86.15299242 -131.59761047 89.3210907 C-134.05673211 90.78013792 -136.51610004 92.2387697 -138.97549438 93.69735718 C-140.70290158 94.72206106 -142.42994711 95.74737455 -144.15698242 96.77270508 C-149.41482267 99.89085246 -154.67940076 102.990061 -160 106 C-159.29391602 106.01981934 -158.58783203 106.03963867 -157.86035156 106.06005859 C-154.65653006 106.15540415 -151.45335199 106.26504513 -148.25 106.375 C-146.58324219 106.42140625 -146.58324219 106.42140625 -144.8828125 106.46875 C-143.81289062 106.50742188 -142.74296875 106.54609375 -141.640625 106.5859375 C-140.16384277 106.63306885 -140.16384277 106.63306885 -138.65722656 106.68115234 C-135.9582225 107.00501299 -134.27635632 107.5368138 -132 109 C-130.76157854 111.47684291 -130.87143987 113.11867915 -130.86628723 115.88987732 C-130.86202225 116.92323212 -130.85775726 117.95658691 -130.85336304 119.02125549 C-130.85381622 120.15949265 -130.85426941 121.2977298 -130.85473633 122.47045898 C-130.85137772 123.66562134 -130.8480191 124.86078369 -130.84455872 126.09216309 C-130.8366713 129.37520909 -130.83338026 132.65821719 -130.83274293 135.94127154 C-130.83179441 138.67992367 -130.82811678 141.41856969 -130.82457083 144.15721947 C-130.81642322 150.61726728 -130.81398689 157.07730116 -130.81469727 163.53735352 C-130.81529822 170.20612643 -130.80474371 176.87481849 -130.7889536 183.54357094 C-130.77588806 189.26505841 -130.77051295 194.98651942 -130.77115268 200.7080217 C-130.77140795 204.12699063 -130.76854083 207.54588774 -130.75797462 210.96484184 C-130.7482212 214.7766791 -130.75103437 218.58830614 -130.75708008 222.40014648 C-130.75146057 223.53635941 -130.74584106 224.67257233 -130.74005127 225.84321594 C-130.74424576 226.87939056 -130.74844025 227.91556519 -130.75276184 228.98313904 C-130.75221707 229.88482032 -130.75167231 230.7865016 -130.75111103 231.71550655 C-131 234 -131 234 -133 237 C-134.875 237.3984375 -134.875 237.3984375 -137 237.375 C-137.70125 237.38273438 -138.4025 237.39046875 -139.125 237.3984375 C-141 237 -141 237 -143 234 C-143.24609566 231.85047626 -143.24609566 231.85047626 -143.24050903 229.31135559 C-143.24325836 228.34801804 -143.24600769 227.38468048 -143.24884033 226.39215088 C-143.24164978 225.33695251 -143.23445923 224.28175415 -143.22705078 223.19458008 C-143.22734283 222.08223495 -143.22763489 220.96988983 -143.22793579 219.82383728 C-143.22653998 216.13898986 -143.21096675 212.45434344 -143.1953125 208.76953125 C-143.19158327 206.21791189 -143.18873587 203.6662911 -143.18673706 201.1146698 C-143.17987522 195.07984845 -143.16410464 189.04511368 -143.14403808 183.01032704 C-143.12168811 176.13978171 -143.11068793 169.26923293 -143.10064721 162.3986603 C-143.07973863 148.26573343 -143.04455701 134.13287068 -143 120 C-144.96005981 120.03927612 -144.96005981 120.03927612 -146.9597168 120.0793457 C-151.81435988 120.16994324 -156.66892845 120.22728445 -161.52416992 120.2746582 C-163.6242327 120.29978051 -165.72420823 120.33388458 -167.82397461 120.37719727 C-170.8451084 120.43794871 -173.86508496 120.46623263 -176.88671875 120.48828125 C-177.82335861 120.51408768 -178.75999847 120.5398941 -179.72502136 120.56648254 C-184.33880665 120.56846136 -186.34482742 120.49707514 -190.12426758 117.62963867 C-192 115 -192 115 -192.125 112.4375 C-189.23585199 106.17767932 -181.11499599 103.04071493 -175.375 99.75 C-173.20132378 98.49305027 -171.02816573 97.23520412 -168.85546875 95.9765625 C-167.7267334 95.32333008 -166.59799805 94.67009766 -165.43505859 93.99707031 C-159.83262975 90.73993684 -154.25960883 87.43365542 -148.6875 84.125 C-147.56754639 83.46040771 -146.44759277 82.79581543 -145.29370117 82.11108398 C-143.01075164 80.75611765 -140.7279559 79.40089216 -138.4453125 78.04541016 C-132.69480978 74.63089614 -126.94103059 71.22190853 -121.1875 67.8125 C-120.06110107 67.14492676 -118.93470215 66.47735352 -117.77416992 65.78955078 C-109.96867986 61.16428548 -102.15872376 56.54663242 -94.34643555 51.93286133 C-87.06018768 47.628824 -79.7795308 43.31538599 -72.5 39 C-64.336808 34.16076992 -56.17112521 29.32582361 -48 24.5 C-44.3330943 22.33373765 -40.66644026 20.16705002 -37 18 C-36.43379944 17.66534729 -35.86759888 17.33069458 -35.28424072 16.98590088 C-31.57107989 14.79102584 -27.85856665 12.59506041 -24.14672852 10.39794922 C-22.93303624 9.67971737 -21.71917163 8.96177665 -20.50512695 8.24414062 C-18.81154726 7.24297276 -17.11864996 6.24065083 -15.42578125 5.23828125 C-14.45036377 4.66118408 -13.47494629 4.08408691 -12.4699707 3.48950195 C-7.72185799 0.62617926 -5.68631155 -0.52784327 0 0 Z " fill="#000000" transform="translate(282,38)"/>
<path d="M0 0 C0.78419815 -0.00700928 1.5683963 -0.01401855 2.37635803 -0.02124023 C4.96545955 -0.03882832 7.55346573 -0.02719518 10.14257812 -0.01367188 C11.94332082 -0.01636657 13.74406209 -0.0202488 15.5447998 -0.02526855 C19.31760521 -0.03116468 23.09003164 -0.02259707 26.86279297 -0.00390625 C31.69859736 0.01888351 36.53351377 0.00576102 41.36928558 -0.01819611 C45.08736867 -0.03265106 48.80524126 -0.02804952 52.52333069 -0.01768494 C54.30632126 -0.01501681 56.08933095 -0.01829045 57.87229919 -0.02760315 C60.36459969 -0.03776399 62.85546281 -0.02227559 65.34765625 0 C66.08440079 -0.00809692 66.82114532 -0.01619385 67.58021545 -0.02453613 C70.77455913 0.02835074 72.8878187 0.34266941 75.63160706 2.02062988 C77.83619818 5.5899949 77.72456982 8.91783882 77.67553711 12.98632812 C77.68364159 14.26503784 77.68364159 14.26503784 77.69190979 15.56958008 C77.70441158 18.38593319 77.6878966 21.20126693 77.66992188 24.01757812 C77.67007683 25.97526096 77.67156522 27.93294411 77.67433167 29.890625 C77.67571631 33.99297654 77.66314659 38.09497874 77.64038086 42.19726562 C77.61199613 47.45668147 77.61473272 52.71551679 77.62747097 57.97497559 C77.63442475 62.01730307 77.62664228 66.05949629 77.61421394 70.10180664 C77.60969653 72.04109177 77.60936517 73.98039129 77.61327934 75.91967773 C77.6161886 78.62969526 77.59969836 81.33891179 77.57788086 84.04882812 C77.58238251 84.85102783 77.58688416 85.65322754 77.59152222 86.47973633 C77.54822192 89.71552544 77.37662543 92.12744864 75.87123108 95.0234375 C74.17382812 96.51757812 74.17382812 96.51757812 70.61132812 96.89257812 C67.17382812 96.51757812 67.17382812 96.51757812 65.17382812 94.51757812 C64.98590898 91.89732092 64.92197027 89.38366498 64.94677734 86.76318359 C64.94648529 85.96309875 64.94619324 85.16301392 64.94589233 84.33868408 C64.94728857 81.68726859 64.96286343 79.03613218 64.97851562 76.38476562 C64.98224471 74.54916538 64.98509218 72.71356315 64.98709106 70.87796021 C64.99473572 66.04130581 65.01439132 61.2047711 65.03649902 56.36816406 C65.06053195 50.56790134 65.06973447 44.76759865 65.08140564 38.96730042 C65.10081527 30.15064302 65.139132 21.33424835 65.17382812 12.51757812 C43.72382813 12.51757812 22.27382813 12.51757812 0.17382812 12.51757812 C0.25301615 30.19903539 0.25301615 30.19903539 0.35400391 47.88037109 C0.35984283 50.09016732 0.3649398 52.29996568 0.36914062 54.50976562 C0.37937256 55.66549072 0.38960449 56.82121582 0.40014648 58.01196289 C0.40038818 59.10806885 0.40062988 60.2041748 0.40087891 61.33349609 C0.40532013 62.28835907 0.40976135 63.24322205 0.41433716 64.22702026 C0.17382812 66.51757812 0.17382812 66.51757812 -1.82617188 68.51757812 C-3.70117187 68.81835938 -3.70117187 68.81835938 -5.82617188 68.83007812 C-6.52742187 68.84683594 -7.22867188 68.86359375 -7.95117188 68.88085938 C-8.56992188 68.76097656 -9.18867188 68.64109375 -9.82617188 68.51757812 C-12.13063656 65.0608811 -12.08751241 63.71794184 -12.11669922 59.64086914 C-12.12945892 58.43274063 -12.14221863 57.22461212 -12.15536499 55.97987366 C-12.15759064 54.67360519 -12.15981628 53.36733673 -12.16210938 52.02148438 C-12.16853682 50.66771808 -12.17526514 49.31395319 -12.18228149 47.96018982 C-12.19425429 45.12308532 -12.19796229 42.28610259 -12.19677734 39.44897461 C-12.19657405 35.81596229 -12.22388517 32.18373136 -12.25832176 28.55090427 C-12.2805736 25.75502445 -12.28461545 22.95933326 -12.28355789 20.16337395 C-12.28706163 18.17360015 -12.3087346 16.18388523 -12.33065796 14.19422913 C-12.3245047 12.98294846 -12.31835144 11.77166779 -12.31201172 10.52368164 C-12.31486176 9.45795425 -12.31771179 8.39222687 -12.32064819 7.29420471 C-11.82617188 4.51757812 -11.82617188 4.51757812 -10.28494263 2.17454529 C-6.9169672 -0.09513548 -3.92526563 -0.04313921 0 0 Z " fill="#000000" transform="translate(245.826171875,206.482421875)"/>
</svg>
