<?xml version="1.0" encoding="UTF-8"?>
<svg version="1.1" xmlns="http://www.w3.org/2000/svg" width="512" height="512">
<path d="M0 0 C1.39365803 -0.01151247 2.78727221 -0.03195327 4.18066406 -0.06152344 C6.20171856 -0.10439211 8.22146611 -0.12039378 10.24291992 -0.13061523 C12.05240112 -0.15248901 12.05240112 -0.15248901 13.8984375 -0.17480469 C19.09369717 0.54597909 22.14635726 3.03244202 25.59838867 6.85766602 C30.60978089 14.09634366 28.28588867 18.78191668 28.28588867 29.29516602 C63.92588867 29.29516602 99.56588867 29.29516602 136.28588867 29.29516602 C136.28588867 23.35516602 136.28588867 17.41516602 136.28588867 11.29516602 C139.65111762 6.24732259 141.94523389 2.96549341 147.28588867 0.29516602 C151.47740814 0.03665035 155.67077432 0.02408333 159.86962891 0 C161.26328718 -0.01148308 162.65690274 -0.03187684 164.05029297 -0.06152344 C178.57594392 -0.37057984 178.57594392 -0.37057984 184.28588867 4.29516602 C188.95058328 9.74927048 189.41215077 15.65885962 189.34838867 22.54516602 C189.33936523 23.80844727 189.3303418 25.07172852 189.32104492 26.37329102 C189.30364258 27.81961914 189.30364258 27.81961914 189.28588867 29.29516602 C190.77807167 29.28517326 190.77807167 29.28517326 192.30039978 29.27497864 C201.70117718 29.21401463 211.10191417 29.16912018 220.50284481 29.1397295 C225.33531406 29.12411121 230.16762299 29.10294338 235 29.06884766 C239.66843289 29.03611692 244.33671211 29.01828418 249.00525093 29.01053429 C250.78134134 29.00501531 252.55742388 28.99423835 254.33344841 28.97797585 C267.00933464 28.86658213 277.52316366 29.19657196 287.28588867 38.29516602 C291.93482978 44.16751267 293.5381396 49.62032789 293.52639771 57.052948 C293.52896098 58.03456506 293.52896098 58.03456506 293.53157604 59.03601277 C293.5348535 61.21479602 293.52389641 63.39326691 293.51293945 65.57202148 C293.51237496 67.13938896 293.51269264 68.70675697 293.51382446 70.27412415 C293.51439749 74.51954777 293.50265123 78.76485802 293.48867655 83.01025534 C293.47616091 87.45052609 293.47499803 91.89079954 293.47262573 96.33108521 C293.46641342 104.73511945 293.45000595 113.13910157 293.42992675 121.54311287 C293.40756004 131.11259104 293.39657238 140.68207171 293.38653588 150.25156951 C293.36563951 169.93279742 293.33046835 189.61397843 293.28588867 209.29516602 C294.66538696 209.73517944 294.66538696 209.73517944 296.07275391 210.18408203 C307.97406263 214.29948785 318.12845178 222.90695382 327.28588867 231.29516602 C328.10831055 232.04668945 328.93073242 232.79821289 329.77807617 233.57250977 C349.39967841 252.34542679 364.00234536 281.24067914 365.46289062 308.61230469 C366.01863612 341.26844131 366.01863612 341.26844131 361.28588867 356.29516602 C360.91584717 357.48239258 360.91584717 357.48239258 360.53833008 358.69360352 C350.77193363 389.10192936 329.82185503 415.41940744 301.47509766 430.52319336 C271.01220333 446.0760261 235.75761816 449.41352559 203.04370117 438.97485352 C180.62062391 431.34797458 158.21180011 416.6815604 144.28588867 397.29516602 C143.8927822 396.33993546 143.49967573 395.3847049 143.09465694 394.40052795 C141.34722614 390.70726983 139.65692527 387.65084946 136.28588867 385.29516602 C128.96181144 382.93136818 120.71061691 383.76519349 113.12207031 383.90454102 C110.73157713 383.90461189 108.34107872 383.89934408 105.9506073 383.8891449 C100.13914786 383.87741521 94.32992718 383.92023513 88.51887519 383.98630649 C81.74543643 384.0598964 74.97253804 384.06193608 68.19876891 384.05880058 C56.10839755 384.05473149 44.0187915 384.10117283 31.92871094 384.18237305 C20.21031286 384.26091414 8.49203889 384.32575453 -3.2265625 384.36499023 C-3.948199 384.36741753 -4.66983551 384.36984483 -5.41333979 384.37234569 C-13.29803643 384.39832088 -21.1827325 384.41867 -29.06746006 384.43234253 C-30.10807893 384.43416312 -30.10807893 384.43416312 -31.1697204 384.43602049 C-33.9437262 384.44079745 -36.71773181 384.44551277 -39.49173886 384.44950986 C-48.2587532 384.46229264 -57.02506915 384.50063782 -65.79184902 384.56621456 C-70.82138843 384.60072614 -75.85090579 384.61936387 -80.88053703 384.63447762 C-83.21017758 384.6451094 -85.5397985 384.66271451 -87.86932755 384.6878643 C-91.05393134 384.72147973 -94.23771147 384.7303186 -97.42247009 384.73339844 C-98.79904837 384.75731722 -98.79904837 384.75731722 -100.20343632 384.78171921 C-108.1081042 384.74464594 -114.99160759 382.3414487 -121.02661133 377.10766602 C-121.64149414 376.59848633 -122.25637695 376.08930664 -122.88989258 375.56469727 C-128.84561283 368.15511811 -129.29243508 360.53449459 -129.22877502 351.32154846 C-129.23572055 350.0345953 -129.24266608 348.74764214 -129.24982208 347.4216904 C-129.26837694 343.86970095 -129.2621695 340.31813047 -129.25166905 336.76612413 C-129.24465655 332.9275729 -129.26069046 329.08910598 -129.27366638 325.25057983 C-129.29527741 317.73860686 -129.29518695 310.22678555 -129.28704084 302.71479172 C-129.28073386 296.60762092 -129.28188426 290.50049425 -129.28831291 284.3933239 C-129.28921457 283.52319175 -129.29011622 282.65305959 -129.2910452 281.7565598 C-129.29289645 279.98873591 -129.29475902 278.22091203 -129.29663276 276.45308816 C-129.31320114 259.8859292 -129.30450022 243.31885547 -129.28764718 226.75170165 C-129.27295119 211.60465008 -129.28757889 196.4577969 -129.31641734 181.31077088 C-129.34583046 165.74562522 -129.35677804 150.18057105 -129.34723514 134.61539882 C-129.34621262 132.85387386 -129.34521801 131.09234889 -129.34425163 129.3308239 C-129.34377524 128.46419117 -129.34329885 127.59755845 -129.34280803 126.70466413 C-129.34064642 120.60777235 -129.35043447 114.51096745 -129.36502266 108.41409492 C-129.38256361 100.97966797 -129.38240345 93.54549388 -129.359671 86.11107678 C-129.34854467 82.32034672 -129.34532924 78.53006186 -129.36397171 74.73935127 C-129.38394758 70.62445853 -129.36495641 66.51064596 -129.34230042 62.39576721 C-129.35413614 61.20538599 -129.36597187 60.01500477 -129.37816626 58.78855139 C-129.27127006 49.22256817 -126.85011656 42.13974281 -119.96411133 35.35766602 C-111.08388552 27.50059666 -98.92080989 28.90252643 -87.89770508 29.00219727 C-86.07211151 29.00780025 -84.2465134 29.01206702 -82.4209137 29.01506042 C-77.64182844 29.02645395 -72.86302153 29.05587323 -68.08404541 29.08917236 C-63.19710046 29.11999231 -58.31011006 29.13359113 -53.4230957 29.14868164 C-43.8533127 29.18074871 -34.28373526 29.23187783 -24.71411133 29.29516602 C-24.73368896 28.19527344 -24.7532666 27.09538086 -24.7734375 25.9621582 C-24.78927121 24.50545733 -24.80462688 23.0487512 -24.81958008 21.59204102 C-24.83371948 20.86871582 -24.84785889 20.14539063 -24.86242676 19.40014648 C-24.90832232 13.43712285 -24.14994737 10.12390857 -20.71411133 5.29516602 C-14.45138648 -0.66206006 -8.23946957 0.04740331 0 0 Z M-9.71411133 16.29516602 C-10.00552064 19.39385017 -10.10982231 22.28942123 -10.07739258 25.38891602 C-10.07789108 26.29138062 -10.07838959 27.19384521 -10.0789032 28.12365723 C-10.07656052 30.03355102 -10.0668206 31.94344777 -10.05029297 33.85327148 C-10.02670603 36.78340138 -10.02972972 39.71262163 -10.03637695 42.64282227 C-10.03080024 44.4956923 -10.02369041 46.34855848 -10.01489258 48.20141602 C-10.01580399 49.08164429 -10.01671539 49.96187256 -10.01765442 50.86877441 C-10.18764717 55.56495665 -10.18764717 55.56495665 -7.71411133 59.29516602 C-5.71389164 59.60462507 -5.71389164 59.60462507 -3.43286133 59.56079102 C-2.59110352 59.56336914 -1.7493457 59.56594727 -0.88208008 59.56860352 C-0.00165039 59.56086914 0.8787793 59.55313477 1.78588867 59.54516602 C2.66631836 59.55290039 3.54674805 59.56063477 4.45385742 59.56860352 C5.29561523 59.56602539 6.13737305 59.56344727 7.00463867 59.56079102 C8.16382813 59.55740723 8.16382813 59.55740723 9.34643555 59.55395508 C11.52255928 59.46340975 11.52255928 59.46340975 13.28588867 57.29516602 C13.49829352 54.23351537 13.58984166 51.26464783 13.58666992 48.20141602 C13.59095505 47.29895142 13.59524017 46.39648682 13.59965515 45.4666748 C13.6054034 43.55681193 13.60589508 41.64692716 13.6015625 39.73706055 C13.59840126 36.80683269 13.62185966 33.87761278 13.6472168 30.94750977 C13.64948952 29.09464646 13.65019341 27.24178043 13.64916992 25.38891602 C13.65837967 24.50868774 13.66758942 23.62845947 13.67707825 22.72155762 C13.69163838 20.00086768 13.69163838 20.00086768 13.28588867 16.29516602 C9.43646358 13.72888262 6.24290981 14.0005214 1.78588867 14.04516602 C1.01374023 14.03743164 0.2415918 14.02969727 -0.55395508 14.02172852 C-4.45042601 14.03523448 -6.4039838 14.08841433 -9.71411133 16.29516602 Z M151.28588867 15.29516602 C151.26124354 21.40071312 151.24305496 27.50623152 151.23095703 33.61181641 C151.22591579 35.69059757 151.21908293 37.76937518 151.21044922 39.84814453 C151.19837445 42.82919187 151.19265843 45.81019251 151.18823242 48.79125977 C151.18307114 49.72667099 151.17790985 50.66208221 151.17259216 51.62583923 C151.17251663 52.48665604 151.1724411 53.34747284 151.17236328 54.234375 C151.17014267 54.99604477 151.16792206 55.75771454 151.16563416 56.54246521 C151.09497912 58.32327206 151.09497912 58.32327206 152.28588867 59.29516602 C155.59027776 59.57281042 158.90871002 59.52691589 162.22338867 59.54516602 C163.62234375 59.57610352 163.62234375 59.57610352 165.04956055 59.60766602 C166.38664062 59.61540039 166.38664062 59.61540039 167.75073242 59.62329102 C168.57178467 59.63263672 169.39283691 59.64198242 170.23876953 59.65161133 C170.91431885 59.53398438 171.58986816 59.41635742 172.28588867 59.29516602 C174.88338211 55.39892585 174.59164496 52.0971598 174.58666992 47.57641602 C174.59095505 46.72213013 174.59524017 45.86784424 174.59965515 44.9876709 C174.60539613 43.18213792 174.60590042 41.37658181 174.6015625 39.57104492 C174.5984005 36.80550829 174.62187095 34.04103927 174.6472168 31.27563477 C174.64948958 29.52172987 174.65019339 27.76782209 174.64916992 26.01391602 C174.65837967 25.18573364 174.66758942 24.35755127 174.67707825 23.50427246 C174.75457652 19.27731315 174.75457652 19.27731315 173.00675964 15.5736084 C170.00979231 13.34714858 166.36795832 13.94948469 162.78588867 14.04516602 C162.01374023 14.05032227 161.2415918 14.05547852 160.44604492 14.06079102 C157.15738243 14.10638772 154.4231553 14.24941047 151.28588867 15.29516602 Z M-112.52661133 50.23266602 C-118.71377172 60.9787867 -114.71411133 91.81403627 -114.71411133 93.29516602 C14.97588867 93.29516602 144.66588867 93.29516602 278.28588867 93.29516602 C281.98388998 57.64031755 281.98388998 57.64031755 274.28588867 47.29516602 C270.23548417 43.96634231 266.42230529 43.88001661 261.37451172 43.95458984 C260.59349594 43.95415176 259.81248016 43.95371368 259.00779724 43.95326233 C256.43747581 43.95534509 253.86781429 43.97865148 251.29760742 44.00219727 C249.51113745 44.00779505 247.72466287 44.01206429 245.93818665 44.01506042 C241.24452926 44.02649483 236.55115198 44.05594989 231.85760498 44.08917236 C227.06485788 44.11990355 222.27206535 44.13357227 217.47924805 44.14868164 C208.08133877 44.18082095 198.68363705 44.23200031 189.28588867 44.29516602 C189.19065918 45.74040649 189.19065918 45.74040649 189.09350586 47.21484375 C189.00746094 48.47756104 188.92141602 49.74027832 188.83276367 51.04125977 C188.70659668 52.91962524 188.70659668 52.91962524 188.57788086 54.8359375 C188.12643467 60.18421592 187.52581838 63.73639724 184.09838867 68.04516602 C177.14559572 73.60740037 170.91798304 73.76514016 162.28588867 73.67016602 C161.23143555 73.68176758 160.17698242 73.69336914 159.09057617 73.70532227 C153.00143257 73.68243075 148.68490037 73.12390353 143.28588867 70.29516602 C142.29588867 69.96516602 141.30588867 69.63516602 140.28588867 69.29516602 C139.16088867 66.85766602 139.16088867 66.85766602 138.28588867 64.29516602 C137.95588867 63.63516602 137.62588867 62.97516602 137.28588867 62.29516602 C136.95588867 56.35516602 136.62588867 50.41516602 136.28588867 44.29516602 C100.64588867 44.29516602 65.00588867 44.29516602 28.28588867 44.29516602 C27.95588867 49.90516602 27.62588867 55.51516602 27.28588867 61.29516602 C24.33508779 67.19676778 22.72828239 69.7682537 16.82885742 72.38500977 C11.83582329 73.66767454 7.04531872 73.62403856 1.91088867 73.60766602 C0.40655273 73.63183594 0.40655273 73.63183594 -1.12817383 73.65649414 C-7.37026779 73.66057928 -12.05739432 72.98791829 -17.71411133 70.29516602 C-23.12534038 64.88393696 -24.02539553 59.29616546 -24.33911133 51.98266602 C-24.3777832 51.24209961 -24.41645508 50.5015332 -24.45629883 49.73852539 C-24.54992837 47.92445293 -24.63307984 46.10984486 -24.71411133 44.29516602 C-35.0411142 44.20240945 -45.36801765 44.13137225 -55.69535255 44.08791733 C-60.49098062 44.06705911 -65.28632329 44.03877374 -70.08178711 43.9934082 C-74.71131565 43.94988744 -79.34056998 43.92601563 -83.97028732 43.91565704 C-85.73492117 43.90827685 -87.49954032 43.89386491 -89.26405716 43.87224579 C-91.73943542 43.8431284 -94.21368651 43.8392134 -96.68920898 43.84106445 C-97.41569641 43.82668335 -98.14218384 43.81230225 -98.89068604 43.79748535 C-104.86541916 43.84570073 -108.49847473 45.9267269 -112.52661133 50.23266602 Z M-114.71411133 108.29516602 C-114.75536133 149.07079102 -114.79661133 189.84641602 -114.83911133 231.85766602 C-114.85731934 244.74128174 -114.87552734 257.62489746 -114.89428711 270.89892578 C-114.90097523 282.42949623 -114.90097523 282.42949623 -114.90499878 293.96006775 C-114.906865 299.10310818 -114.91420625 304.2461172 -114.92526245 309.3891449 C-114.93933845 315.94659594 -114.94309653 322.50399884 -114.94025588 329.06146801 C-114.94085002 331.46980146 -114.94482521 333.87813697 -114.95254159 336.28645813 C-114.96247431 339.53716329 -114.96009668 342.78763493 -114.95462036 346.03834534 C-114.96044569 346.98263869 -114.96627102 347.92693205 -114.97227287 348.89984035 C-114.94238325 355.49138038 -114.69966852 360.95322677 -110.27661133 366.17016602 C-107.05675974 368.84028684 -104.76103479 369.42039273 -100.70612049 369.41821384 C-99.88851618 369.42020489 -99.07091186 369.42219594 -98.22853166 369.42424732 C-96.88175302 369.41987806 -96.88175302 369.41987806 -95.50776672 369.41542053 C-94.07672026 369.41670217 -94.07672026 369.41670217 -92.61676377 369.4180097 C-89.40611143 369.4196625 -86.19551084 369.41414635 -82.98486328 369.40869141 C-80.68888348 369.40840947 -78.39290358 369.4085674 -76.09692383 369.40913391 C-69.85142504 369.40942162 -63.60594533 369.40352919 -57.36045098 369.39655995 C-50.8381359 369.39032198 -44.31582041 369.38972226 -37.79350281 369.38853455 C-26.84214944 369.38577644 -15.89080314 369.37952404 -4.93945312 369.37060547 C6.34114548 369.36142831 17.62174217 369.35434896 28.90234375 369.35009766 C29.59752555 369.34983493 30.29270735 369.34957221 31.00895526 369.34930152 C34.49643195 369.3479965 37.98390865 369.34673279 41.47138536 369.34548962 C70.40955778 369.33512068 99.34772306 369.31743128 128.28588867 369.29516602 C128.08246857 368.55385437 127.87904846 367.81254272 127.66946411 367.04876709 C127.40124847 366.06885803 127.13303284 365.08894897 126.85668945 364.0793457 C126.59139435 363.11115906 126.32609924 362.14297241 126.05276489 361.14544678 C125.01671695 357.29472429 124.07130938 353.42719991 123.16088867 349.54516602 C122.99202148 348.84262695 122.8231543 348.14008789 122.64916992 347.41625977 C115.05490029 315.18546187 122.37223875 282.21827701 139.28588867 254.29516602 C142.01161136 250.07074489 145.05703168 246.14693524 148.28588867 242.29516602 C149.00389648 241.42633789 149.7219043 240.55750977 150.46166992 239.66235352 C167.73059657 219.6021794 191.7741023 207.12304783 217.28588867 201.29516602 C218.84243164 200.92584961 218.84243164 200.92584961 220.43041992 200.54907227 C227.60725895 199.15597767 234.87141277 199.03482439 242.16088867 198.92016602 C243.10971924 198.89398193 244.0585498 198.86779785 245.03613281 198.84082031 C256.61007563 198.81532081 266.42413223 201.23225185 278.28588867 203.29516602 C278.28588867 171.94516602 278.28588867 140.59516602 278.28588867 108.29516602 C148.59588867 108.29516602 18.90588867 108.29516602 -114.71411133 108.29516602 Z M196.28588867 223.29516602 C195.19018555 223.80821289 194.09448242 224.32125977 192.96557617 224.84985352 C168.46124243 237.19059027 149.90939478 258.73929964 140.28588867 284.29516602 C131.19443401 311.87153709 131.63056935 341.83036225 144.28588867 368.29516602 C159.06560918 396.97107519 183.06331605 416.27254718 213.49291992 426.28735352 C223.05880627 428.82906173 232.14415631 429.6547695 242.03588867 429.60766602 C243.89358887 429.59920654 243.89358887 429.59920654 245.78881836 429.59057617 C270.16330713 429.2670777 293.89520349 420.48763799 312.28588867 404.29516602 C313.0928418 403.63129883 313.89979492 402.96743164 314.73120117 402.28344727 C334.09298484 385.86538306 347.80341865 360.67446056 350.28588867 335.29516602 C351.82670378 303.05025726 345.85285233 274.28856921 323.72143555 249.54614258 C307.53717962 232.04632433 288.39661252 220.90049074 265.28588867 215.29516602 C264.30749023 215.04895508 263.3290918 214.80274414 262.32104492 214.54907227 C240.17438967 209.94180539 216.56533176 213.77624375 196.28588867 223.29516602 Z " fill="#000000" transform="translate(137.714111328125,33.704833984375)"/>
<path d="M0 0 C16.68457721 14.19472492 27.19587 34.82644189 29.07592773 56.60668945 C30.55799203 79.27002277 24.15108099 101.18084393 9.36328125 118.64453125 C8.69941406 119.3921875 8.03554688 120.13984375 7.3515625 120.91015625 C6.75988281 121.5959375 6.16820312 122.28171875 5.55859375 122.98828125 C-8.5021885 138.21829699 -30.1809832 146.85987986 -50.59643555 147.88623047 C-72.2022489 148.4773107 -92.00606772 141.72045928 -108.6484375 127.91015625 C-109.52048828 127.25660156 -109.52048828 127.25660156 -110.41015625 126.58984375 C-125.20138241 115.07406394 -134.54288683 95.51358505 -137.3671875 77.27197266 C-140.26170067 52.96509728 -134.76741246 30.85681376 -119.7578125 11.42578125 C-89.2007661 -25.01632594 -37.01496931 -29.20797726 0 0 Z M-107.17578125 19.7578125 C-119.56809023 35.40799971 -124.42401133 53.20342598 -122.6484375 72.91015625 C-120.30478467 90.89056156 -111.07570551 106.91493778 -96.96679688 118.26269531 C-81.07901237 130.16491559 -62.25826615 134.67956092 -42.6484375 131.91015625 C-23.64735262 128.12229101 -9.01488376 117.81447556 2.60546875 102.5703125 C12.59003224 87.35893054 16.45497675 69.07386563 13.13671875 51.1640625 C8.40750536 31.56488461 -2.36400078 15.5555378 -19.6484375 4.91015625 C-49.40236746 -11.26923107 -84.52725026 -5.761166 -107.17578125 19.7578125 Z " fill="#000000" transform="translate(434.6484375,291.08984375)"/>
<path d="M0 0 C2 1.4375 2 1.4375 3 4 C3.22339665 7.01845245 3.17422244 9.98014438 3 13 C3.74765625 12.95359375 4.4953125 12.9071875 5.265625 12.859375 C13.25453113 12.56658786 13.25453113 12.56658786 16.6875 14.5625 C18.52035388 17.96637149 18.54407614 20.19146701 18 24 C15.93264734 26.68309611 14.75224126 27.85636407 11.39038086 28.49829102 C9.94223999 28.50107056 9.94223999 28.50107056 8.46484375 28.50390625 C7.40845703 28.52259766 6.35207031 28.54128906 5.26367188 28.56054688 C4.16603516 28.56119141 3.06839844 28.56183594 1.9375 28.5625 C-0.2409796 28.57142297 -2.41945463 28.59297989 -4.59765625 28.62890625 C-5.56195557 28.62963135 -6.52625488 28.63035645 -7.51977539 28.63110352 C-10.02772485 28.81337123 -10.02772485 28.81337123 -11.82592773 30.29272461 C-13.71864129 33.04501114 -13.18283162 35.76997468 -13 39 C-9.79179637 40.02530219 -6.71360473 40.1095392 -3.36450195 40.18823242 C4.98650342 40.43217704 10.41584196 41.59352251 16.51171875 47.453125 C20.97914366 52.31736989 22.4753457 57.37531632 22.23828125 63.92578125 C21.41510957 71.09142322 18.53157948 75.00081084 13.03515625 79.5546875 C9.38623791 82.14604985 7.59243326 83 3 83 C3.05800781 83.67546875 3.11601562 84.3509375 3.17578125 85.046875 C3.54229489 92.29337332 3.54229489 92.29337332 0.9375 95.6875 C-2.90761515 97.40553017 -4.98723185 97.18896834 -9 96 C-10.9375 94.5 -10.9375 94.5 -12 92 C-12.22896171 88.98186836 -12.17421949 86.01980452 -12 83 C-12.67546875 83.04640625 -13.3509375 83.0928125 -14.046875 83.140625 C-21.29883139 83.43405676 -21.29883139 83.43405676 -24.625 81.375 C-26.40841979 78.29454763 -26.51186027 76.50989896 -26 73 C-24.22015595 69.8640843 -23.47691793 69.15897264 -20 68 C-18.25153945 67.86312868 -16.49898384 67.77553355 -14.74609375 67.71875 C-13.21758789 67.66267578 -13.21758789 67.66267578 -11.65820312 67.60546875 C-9.50716564 67.53502847 -7.35612395 67.46471643 -5.20507812 67.39453125 C-4.18736328 67.35714844 -3.16964844 67.31976563 -2.12109375 67.28125 C-1.1870874 67.25095703 -0.25308105 67.22066406 0.70922852 67.18945312 C3.02875608 67.14061032 3.02875608 67.14061032 5 66 C5.92457659 63.11993606 5.92457659 63.11993606 6 60 C4.98515811 58.19590748 4.98515811 58.19590748 3 57 C-0.12081051 56.5278903 -0.12081051 56.5278903 -3.625 56.5 C-12.02473355 56.02421695 -18.10132046 55.49664876 -23.9375 49.0625 C-29.46390919 42.28187029 -29.68915255 36.63594288 -29 28 C-27.04936523 22.25076069 -23.34212955 18.65662822 -18.4375 15.1875 C-16 14 -16 14 -12 14 C-12.04640625 13.32453125 -12.0928125 12.6490625 -12.140625 11.953125 C-12.43184885 4.75573549 -12.43184885 4.75573549 -10.5 1.375 C-6.69605923 -0.71716742 -4.32255167 -0.54889545 0 0 Z " fill="#000000" transform="translate(384,307)"/>
<path d="M0 0 C0.77255127 -0.00287018 1.54510254 -0.00574036 2.34106445 -0.00869751 C3.9646885 -0.01072724 5.58833762 -0.00527417 7.21191406 0.00732422 C9.68090082 0.02339455 12.14825096 0.00743933 14.6171875 -0.01171875 C16.20312857 -0.00973612 17.78906863 -0.00589204 19.375 0 C20.46905151 -0.00910904 20.46905151 -0.00910904 21.58520508 -0.0184021 C26.54255098 0.04879602 30.29623386 0.88354823 34.6875 3.3984375 C39.09266682 8.18928546 39.26775594 12.34153384 39.18359375 18.5234375 C39.18504898 19.38855957 39.18650421 20.25368164 39.18800354 21.14501953 C39.18634963 22.96715679 39.17484542 24.78930875 39.15405273 26.61132812 C39.12508868 29.38993062 39.1334562 32.16662371 39.14648438 34.9453125 C39.14024633 36.72136338 39.13185487 38.49740827 39.12109375 40.2734375 C39.12402939 41.09859863 39.12696503 41.92375977 39.12998962 42.77392578 C39.05055502 47.66500383 38.59746736 51.277041 35.6875 55.3984375 C30.82433835 58.83910961 26.2604659 58.83890756 20.52734375 58.796875 C19.65985001 58.79974518 18.79235626 58.80261536 17.89857483 58.80557251 C16.07226912 58.80760629 14.24594129 58.80212458 12.41967773 58.78955078 C9.63020034 58.77346748 6.84216743 58.78943252 4.05273438 58.80859375 C2.27343432 58.80661158 0.49413515 58.80276844 -1.28515625 58.796875 C-2.11547867 58.80294769 -2.94580109 58.80902039 -3.80128479 58.8152771 C-9.45877178 58.74678284 -12.69536128 57.64169926 -17.0625 53.8984375 C-20.2098585 50.12160731 -19.50999545 45.20789693 -19.55078125 40.56640625 C-19.558853 39.69703934 -19.56692474 38.82767242 -19.57524109 37.93196106 C-19.58906801 36.09194933 -19.59979639 34.25191209 -19.60766602 32.41186523 C-19.62487227 29.60676131 -19.6687692 26.80283834 -19.71289062 23.99804688 C-19.72301871 22.20834198 -19.73153445 20.41862709 -19.73828125 18.62890625 C-19.75578934 17.79433395 -19.77329742 16.95976166 -19.79133606 16.09989929 C-19.77156859 10.75734102 -19.08442829 7.48281515 -15.3125 3.3984375 C-10.15906727 0.44705349 -5.77108096 -0.04804984 0 0 Z M-4.3125 15.3984375 C-4.3125 24.6384375 -4.3125 33.8784375 -4.3125 43.3984375 C4.9275 43.3984375 14.1675 43.3984375 23.6875 43.3984375 C23.6875 34.1584375 23.6875 24.9184375 23.6875 15.3984375 C14.4475 15.3984375 5.2075 15.3984375 -4.3125 15.3984375 Z " fill="#000000" transform="translate(159.3125,323.6015625)"/>
<path d="M0 0 C1.30336304 -0.00430527 1.30336304 -0.00430527 2.63305664 -0.00869751 C4.46533868 -0.01073384 6.29764268 -0.00523419 8.12988281 0.00732422 C10.92823069 0.0233843 13.72513434 0.00746118 16.5234375 -0.01171875 C18.30729484 -0.00973624 20.09115129 -0.00589241 21.875 0 C22.70845947 -0.00607269 23.54191895 -0.01214539 24.40063477 -0.0184021 C30.06985883 0.0499518 33.3110274 1.14717527 37.6875 4.8984375 C40.8348585 8.67526769 40.13499545 13.58897807 40.17578125 18.23046875 C40.183853 19.09983566 40.19192474 19.96920258 40.20024109 20.86491394 C40.21406801 22.70492567 40.22479639 24.54496291 40.23266602 26.38500977 C40.24987227 29.19011369 40.2937692 31.99403666 40.33789062 34.79882812 C40.34801871 36.58853302 40.35653445 38.37824791 40.36328125 40.16796875 C40.38078934 41.00254105 40.39829742 41.83711334 40.41633606 42.69697571 C40.39652509 48.05129031 39.65809504 51.26242308 35.9375 55.3984375 C31.12368101 58.68840145 26.87547269 58.84059291 21.25 58.796875 C20.42927002 58.79974518 19.60854004 58.80261536 18.76293945 58.80557251 C17.03498643 58.80760573 15.30701001 58.80212794 13.57910156 58.78955078 C10.9454363 58.77348591 8.31330546 58.78942408 5.6796875 58.80859375 C3.9947883 58.80661119 2.30989006 58.80276724 0.625 58.796875 C-0.54712036 58.80598404 -0.54712036 58.80598404 -1.74291992 58.8152771 C-6.55307798 58.75388835 -9.97569804 58.1915278 -14.0625 55.3984375 C-18.40865867 50.54117927 -18.65464885 46.47966652 -18.59375 40.2734375 C-18.59949036 38.97575439 -18.59949036 38.97575439 -18.60534668 37.65185547 C-18.60805865 35.82974071 -18.60074766 34.00758654 -18.58398438 32.18554688 C-18.56256341 29.40666381 -18.58380922 26.63036577 -18.609375 23.8515625 C-18.6067316 22.07551516 -18.60160635 20.29946943 -18.59375 18.5234375 C-18.60184692 17.69827637 -18.60994385 16.87311523 -18.61828613 16.02294922 C-18.53240617 10.70333037 -17.68122005 7.55360876 -14.0625 3.3984375 C-9.72569601 -0.27601471 -5.42123145 -0.03949979 0 0 Z M-3.0625 15.3984375 C-3.0625 24.6384375 -3.0625 33.8784375 -3.0625 43.3984375 C6.1775 43.3984375 15.4175 43.3984375 24.9375 43.3984375 C24.9375 34.1584375 24.9375 24.9184375 24.9375 15.3984375 C15.6975 15.3984375 6.4575 15.3984375 -3.0625 15.3984375 Z " fill="#000000" transform="translate(158.0625,252.6015625)"/>
<path d="M0 0 C1.29768311 -0.00786278 1.29768311 -0.00786278 2.62158203 -0.0158844 C4.44367402 -0.02228416 6.26580743 -0.0209942 8.08789062 -0.01245117 C10.86663659 -0.00393189 13.64333127 -0.03274469 16.421875 -0.06445312 C18.19791605 -0.0660652 19.97396073 -0.06548749 21.75 -0.0625 C22.9877417 -0.07935097 22.9877417 -0.07935097 24.25048828 -0.09654236 C29.58531153 -0.03246422 32.65725063 0.87325543 36.875 4.43359375 C38.93748229 7.52731719 39.13033148 8.22559871 39.16552734 11.73388672 C39.17828705 12.59843475 39.19104675 13.46298279 39.20419312 14.35372925 C39.20641876 15.28500641 39.20864441 16.21628357 39.2109375 17.17578125 C39.2175943 18.13630402 39.2242511 19.09682678 39.23110962 20.0864563 C39.24123686 22.11897872 39.24592662 24.1515344 39.24560547 26.18408203 C39.24997377 29.28994752 39.28627932 32.39438646 39.32421875 35.5 C39.33008789 37.47525556 39.33405663 39.45051787 39.3359375 41.42578125 C39.35030853 42.35300995 39.36467957 43.28023865 39.37948608 44.23556519 C39.35042384 48.34865729 39.23162906 50.81012701 37.15869141 54.43408203 C32.17059193 58.80146868 27.40157307 58.74151697 21.06640625 58.734375 C19.79989479 58.74080269 19.79989479 58.74080269 18.50779724 58.74736023 C16.72680557 58.75308835 14.9457905 58.753615 13.16479492 58.74926758 C10.44994948 58.74610824 7.73619521 58.76958293 5.02148438 58.79492188 C3.2864597 58.7971952 1.55143211 58.79789821 -0.18359375 58.796875 C-1.39323036 58.81068962 -1.39323036 58.81068962 -2.62730408 58.82478333 C-7.5013987 58.7850568 -10.97386413 58.26000566 -15.125 55.43359375 C-18.94790307 51.10722574 -18.56136938 46.41289478 -18.5234375 40.93359375 C-18.52774277 39.56364258 -18.52774277 39.56364258 -18.53213501 38.16601562 C-18.53417189 36.23957701 -18.52866835 34.31311753 -18.51611328 32.38671875 C-18.50005426 29.44353851 -18.5159747 26.50173145 -18.53515625 23.55859375 C-18.53317375 21.68359073 -18.52932994 19.80858856 -18.5234375 17.93359375 C-18.52951019 17.05638672 -18.53558289 16.17917969 -18.5418396 15.27539062 C-18.48783118 10.56728319 -18.38028667 7.11759196 -15.125 3.43359375 C-10.198015 0.07248915 -5.75280357 -0.02046649 0 0 Z M-3.125 15.43359375 C-3.125 24.67359375 -3.125 33.91359375 -3.125 43.43359375 C5.785 43.43359375 14.695 43.43359375 23.875 43.43359375 C23.875 34.19359375 23.875 24.95359375 23.875 15.43359375 C14.965 15.43359375 6.055 15.43359375 -3.125 15.43359375 Z " fill="#000000" transform="translate(87.125,252.56640625)"/>
<path d="M0 0 C0.79757721 -0.00428513 1.59515442 -0.00857025 2.41690063 -0.01298523 C4.09953871 -0.01871213 5.78220154 -0.01924091 7.46484375 -0.01489258 C10.02387274 -0.01173748 12.58173914 -0.03519431 15.140625 -0.06054688 C16.78124855 -0.06282071 18.42187519 -0.06352298 20.0625 -0.0625 C21.19877335 -0.07631462 21.19877335 -0.07631462 22.35800171 -0.09040833 C28.28116804 -0.03945662 32.87213625 1.00266023 37.57446289 4.87329102 C39.3579735 8.84672726 39.11130057 12.83620463 39.09765625 17.140625 C39.1028981 18.09973282 39.10813995 19.05884064 39.11354065 20.04701233 C39.1199584 22.07356804 39.11862706 24.10016102 39.11010742 26.12670898 C39.10160221 29.22382114 39.13035483 32.31908588 39.16210938 35.41601562 C39.16372164 37.3867182 39.16314337 39.35742403 39.16015625 41.328125 C39.17700722 42.71426247 39.17700722 42.71426247 39.19419861 44.12840271 C39.14940112 48.27162938 39.03376053 50.67840133 36.88305664 54.29907227 C33.60044669 57.2602472 30.96916576 58.54318253 26.54150391 58.59130859 C25.74032135 58.6040683 24.93913879 58.616828 24.11367798 58.62997437 C23.2563205 58.63220001 22.39896301 58.63442566 21.515625 58.63671875 C20.62547699 58.64337555 19.73532898 58.65003235 18.81820679 58.65689087 C16.93709374 58.66700471 15.0559449 58.67170828 13.17480469 58.67138672 C10.30603491 58.6757554 7.43880975 58.71207516 4.5703125 58.75 C2.73958857 58.75586944 0.90885737 58.75983798 -0.921875 58.76171875 C-1.77518402 58.77608978 -2.62849304 58.79046082 -3.50765991 58.80526733 C-8.90864364 58.76411044 -12.11645244 57.99557192 -16.3359375 54.30078125 C-18.04470494 51.48816071 -18.59391936 49.35877767 -18.64233398 46.08642578 C-18.65832138 45.26522247 -18.67430878 44.44401917 -18.69078064 43.59793091 C-18.69614334 42.71869965 -18.70150604 41.83946838 -18.70703125 40.93359375 C-18.71605972 40.02124969 -18.7250882 39.10890564 -18.73439026 38.16891479 C-18.74888266 36.24073564 -18.75777699 34.31250742 -18.76147461 32.38427734 C-18.77336853 29.44283727 -18.82256082 26.50349737 -18.87304688 23.5625 C-18.88251197 21.68620812 -18.88974659 19.8099034 -18.89453125 17.93359375 C-18.91406357 17.05841095 -18.93359589 16.18322815 -18.95372009 15.28152466 C-18.92313521 11.11726744 -18.70840808 8.18686299 -16.11352539 4.82373047 C-11.03418851 0.21004784 -6.66946494 -0.00798173 0 0 Z M-3.3359375 15.30078125 C-3.3359375 24.54078125 -3.3359375 33.78078125 -3.3359375 43.30078125 C5.5740625 43.30078125 14.4840625 43.30078125 23.6640625 43.30078125 C23.6640625 34.06078125 23.6640625 24.82078125 23.6640625 15.30078125 C14.7540625 15.30078125 5.8440625 15.30078125 -3.3359375 15.30078125 Z " fill="#000000" transform="translate(87.3359375,323.69921875)"/>
<path d="M0 0 C0.95910782 -0.00761353 1.91821564 -0.01522705 2.90638733 -0.02307129 C4.93292642 -0.03386703 6.95952113 -0.03672753 8.98608398 -0.03222656 C12.08346516 -0.03125445 15.17836722 -0.07287749 18.27539062 -0.1171875 C20.24608859 -0.12239481 22.21679516 -0.12508269 24.1875 -0.125 C25.11159164 -0.14139526 26.03568329 -0.15779053 26.98777771 -0.17468262 C31.61053535 -0.12510277 33.51444568 -0.05329852 37.22094727 2.94335938 C37.86088623 3.77673828 38.5008252 4.61011719 39.16015625 5.46875 C39.65515625 5.96375 39.65515625 5.96375 40.16015625 6.46875 C40.27875236 7.81753093 40.33015927 9.1723313 40.35302734 10.52612305 C40.36909027 11.38759445 40.3851532 12.24906586 40.40170288 13.13664246 C40.44609851 17.09556415 40.48724846 21.05431511 40.51025391 25.01342773 C40.52678544 27.09980445 40.55403824 29.18612518 40.59228516 31.2722168 C40.64715702 34.27943325 40.66894715 37.28531849 40.68359375 40.29296875 C40.70626312 41.22131027 40.7289325 42.14965179 40.75228882 43.10612488 C40.73792792 47.52636403 40.59458351 50.52671493 37.75244141 54.04223633 C33.39315533 58.12275472 29.71354525 57.65948816 23.98828125 57.70703125 C23.0731073 57.715103 22.15793335 57.72317474 21.21502686 57.73149109 C19.27488095 57.74533629 17.33471064 57.75605649 15.39453125 57.76391602 C12.43572377 57.7811015 9.47804158 57.82498007 6.51953125 57.86914062 C4.6341228 57.87927001 2.74870484 57.88778535 0.86328125 57.89453125 C-0.01817566 57.91203934 -0.89963257 57.92954742 -1.80780029 57.94758606 C-7.28996307 57.92835447 -10.56501475 57.24258363 -14.83984375 53.46875 C-16.53502672 50.67332121 -17.09323223 48.58212594 -17.11450195 45.33032227 C-17.12879997 44.12370689 -17.12879997 44.12370689 -17.14338684 42.89271545 C-17.14247543 42.03222092 -17.14156403 41.17172638 -17.140625 40.28515625 C-17.14491013 39.39263657 -17.14919525 38.50011688 -17.15361023 37.58055115 C-17.15934639 35.69522957 -17.15985905 33.80988586 -17.15551758 31.92456055 C-17.15235886 29.04502483 -17.17582107 26.16651803 -17.20117188 23.28710938 C-17.20344511 21.45312629 -17.20414825 19.61914046 -17.203125 17.78515625 C-17.21233475 16.92668594 -17.22154449 16.06821564 -17.23103333 15.18373108 C-17.18593183 9.33632368 -16.2000965 6.14524217 -12.26733398 1.68554688 C-8.32872509 -0.28870906 -4.34486893 0.00094494 0 0 Z M-1.83984375 15.46875 C-1.83984375 24.37875 -1.83984375 33.28875 -1.83984375 42.46875 C7.07015625 42.46875 15.98015625 42.46875 25.16015625 42.46875 C25.16015625 33.55875 25.16015625 24.64875 25.16015625 15.46875 C16.25015625 15.46875 7.34015625 15.46875 -1.83984375 15.46875 Z " fill="#000000" transform="translate(85.83984375,182.53125)"/>
</svg>
