<?xml version="1.0" encoding="UTF-8"?>
<svg version="1.1" xmlns="http://www.w3.org/2000/svg" width="512" height="512">
<path d="M0 0 C1.87100628 -0.00668677 1.87100628 -0.00668677 3.77981067 -0.01350862 C5.17682188 -0.01341931 6.57383308 -0.01322944 7.97084427 -0.01294994 C9.44497374 -0.01624757 10.91910231 -0.01997293 12.39322972 -0.02409142 C16.45889213 -0.03413104 20.52453977 -0.03783136 24.59021282 -0.04048073 C28.96934451 -0.04437798 33.34846445 -0.0539567 37.72758865 -0.0626936 C48.31048435 -0.08247437 58.89338102 -0.09252624 69.47629058 -0.10142139 C74.45650347 -0.10580162 79.43671529 -0.11116911 84.41692734 -0.11641026 C100.96636484 -0.13342411 117.51580167 -0.14791913 134.06524658 -0.155159 C138.36184312 -0.15706898 142.65843965 -0.1589893 146.95503616 -0.16094494 C148.02297139 -0.16142868 149.09090661 -0.16191242 150.1912035 -0.16241082 C167.49794736 -0.17071427 184.80462216 -0.1960558 202.11133584 -0.22852562 C219.86844439 -0.26156959 237.62551782 -0.27960534 255.38265729 -0.28280324 C265.35723351 -0.2849708 275.33170903 -0.29375537 285.30625534 -0.31926441 C293.79968674 -0.34093508 302.29299301 -0.34903978 310.78644893 -0.33929763 C315.12137437 -0.33474236 319.45604143 -0.33671009 323.7909317 -0.35605907 C327.75862058 -0.37361638 331.72586116 -0.372754 335.69355431 -0.35716178 C337.12966718 -0.35477434 338.56581049 -0.35916789 340.00187668 -0.37099043 C353.36573053 -0.47420333 353.36573053 -0.47420333 358.17964554 4.13422108 C359.76191767 6.21260451 361.06229119 8.14596943 362.36714554 10.38422108 C362.77311966 11.05550037 363.17909378 11.72677967 363.59737015 12.41840076 C365.14009719 14.98146446 366.65957532 17.55765431 368.17964554 20.13422108 C369.60356461 22.53038963 371.02809105 24.926191 372.45308304 27.32172108 C374.88408709 31.41102185 377.31254404 35.50180266 379.73506546 39.59613514 C384.9921359 48.47810773 390.30617349 57.32223445 395.67964554 66.13422108 C402.79437458 77.80547959 409.79699579 89.54083313 416.76167679 101.30218983 C417.14195023 101.9440221 417.52222366 102.58585438 417.91402054 103.24713612 C418.65239707 104.49515646 419.38925325 105.74407775 420.12446976 106.99396229 C421.72471398 109.70960118 423.34907455 112.40100058 425.03902054 115.06195545 C429.19902243 121.63633197 430.49895809 126.31983138 429.17964554 134.13422108 C427.03628072 138.65910235 424.71382857 141.03301431 420.17964554 143.13422108 C411.0217243 144.96580532 401.51892936 144.13422108 392.17964554 144.13422108 C392.17964554 255.34422108 392.17964554 366.55422108 392.17964554 481.13422108 C400.09964554 481.13422108 408.01964554 481.13422108 416.17964554 481.13422108 C426.36146372 485.49785744 426.36146372 485.49785744 429.17964554 491.13422108 C429.87080767 496.2393959 430.36816156 501.11498836 427.68745804 505.66937733 C425.39139696 508.29412764 423.31773902 510.56517433 420.17964554 512.13422108 C417.52493532 512.23727985 414.89613079 512.27893976 412.2409153 512.27682209 C411.40694778 512.28007311 410.57298026 512.28332413 409.713741 512.28667367 C406.8887593 512.29642189 404.06381582 512.29897185 401.23881912 512.30157948 C399.20514204 512.30702268 397.17146604 512.31288578 395.13779128 512.31913519 C389.52538117 512.33503021 383.91297545 512.34451583 378.30054975 512.35290003 C373.4925683 512.36088997 368.68459878 512.37258343 363.87662522 512.38431484 C347.34185655 512.42459167 330.80707721 512.45150322 314.2722783 512.47501764 C312.21017579 512.47796095 310.14807336 512.48095106 308.08597094 512.48395562 C281.86181937 512.52210211 255.63766196 512.55562268 229.41349116 512.57721477 C222.74521045 512.58270902 216.07692992 512.58840857 209.40864944 512.59418201 C208.30338878 512.59513066 208.30338878 512.59513066 207.17579961 512.59609846 C183.28512178 512.61677962 159.39457984 512.66274839 135.50397104 512.7228347 C110.94969857 512.78447775 86.39549888 512.82342383 61.84114785 512.83271802 C58.3736644 512.83403479 54.9061811 512.83559675 51.43869781 512.8373003 C50.75625386 512.83762576 50.07380991 512.83795122 49.37068584 512.83828655 C38.38352242 512.84416525 27.39654461 512.87374613 16.40945161 512.91200652 C5.36652233 512.949914 -5.67624734 512.96157864 -16.7192467 512.94824392 C-22.70311091 512.94176255 -28.68639812 512.94672834 -34.67017365 512.98211765 C-40.14685119 513.01424836 -45.62254266 513.01416733 -51.09924464 512.98830062 C-53.08183269 512.98464282 -55.06448515 512.99286528 -57.04696305 513.01408213 C-73.71807541 513.18176695 -73.71807541 513.18176695 -78.98927498 508.70618916 C-83.16290793 504.03668278 -83.16042369 500.26175911 -83.10160446 494.12250233 C-82.72582386 490.12983344 -81.56871011 488.03113649 -78.82035446 485.13422108 C-68.96079809 477.98604271 -58.37204091 481.13422108 -45.82035446 481.13422108 C-45.82035446 369.92422108 -45.82035446 258.71422108 -45.82035446 144.13422108 C-53.41035446 144.13422108 -61.00035446 144.13422108 -68.82035446 144.13422108 C-76.30624283 141.99539583 -78.66748977 140.36351811 -82.82035446 134.13422108 C-84.72481479 123.94724141 -80.68781558 116.98945715 -75.38285446 108.63422108 C-74.60415067 107.36402143 -73.82799515 106.09225645 -73.05424118 104.81903553 C-71.45370891 102.194579 -69.83887347 99.57986614 -68.21049118 96.97259998 C-65.96882332 93.38135081 -63.76414398 89.76894772 -61.57426071 86.14593983 C-59.50077782 82.71734994 -57.42726442 79.28889154 -55.34012985 75.86859608 C-50.33857238 67.67039069 -45.41393581 59.42885978 -40.5225029 51.16452503 C-37.75129351 46.48423997 -34.97240486 41.80850833 -32.1943779 37.13226795 C-30.59633916 34.44223881 -29.00100423 31.75062968 -27.40726852 29.0580492 C-25.46458018 25.77807806 -23.51169423 22.50437727 -21.55155563 19.23480701 C-20.82270359 18.01549594 -20.09719248 16.79418065 -19.3752861 15.57074451 C-18.378987 13.8834373 -17.36947397 12.20395368 -16.35941696 10.52484608 C-15.79432419 9.57641834 -15.22923141 8.62799061 -14.64701462 7.65082264 C-10.53781789 1.98955562 -6.79426715 0.01121545 0 0 Z M-6.21042264 54.40707364 C-9.32204591 61.51881296 -13.38293926 67.94361327 -17.50785446 74.50922108 C-18.91306718 76.80072956 -20.30787727 79.09835866 -21.70316696 81.39593983 C-23.77560616 84.7895713 -25.84956935 88.18226616 -27.92484665 91.57416248 C-29.27916443 93.7879144 -30.6327933 96.00208797 -31.98563766 98.21674061 C-33.22420426 100.24377573 -34.46483507 102.26955143 -35.70780563 104.29388905 C-36.52341965 105.62831043 -36.52341965 105.62831043 -37.35551071 106.98968983 C-37.83383347 107.76981434 -38.31215622 108.54993885 -38.8049736 109.3537035 C-39.90291812 110.9373848 -39.90291812 110.9373848 -39.82035446 112.13422108 C10.66964554 112.13422108 61.15964554 112.13422108 113.17964554 112.13422108 C115.65464554 104.21422108 115.65464554 104.21422108 118.17964554 96.13422108 C123.90818529 81.98135815 134.67880256 71.74640326 148.58589554 65.63812733 C165.65384428 58.85323329 183.13076782 59.20586155 200.05855179 66.34906483 C214.82010662 73.5933556 224.41864046 85.65233751 230.10152054 100.82562733 C231.31189539 104.5400748 232.23213712 108.34418742 233.17964554 112.13422108 C283.66964554 112.13422108 334.15964554 112.13422108 386.17964554 112.13422108 C381.2139663 103.01884699 381.2139663 103.01884699 376.03511429 94.04437733 C375.48410049 93.11565563 375.48410049 93.11565563 374.92195511 92.16817188 C373.73918241 90.17639247 372.55333811 88.18646539 371.36714554 86.19672108 C370.53289912 84.79422521 369.69867091 83.39171852 368.86445999 81.98920155 C361.3617373 69.38887207 353.76147014 56.8484717 346.11983109 44.33197498 C344.17964554 41.13422108 344.17964554 41.13422108 343.13945895 38.68357795 C341.74531271 35.73861232 340.41508958 33.5151715 338.17964554 31.13422108 C333.83736062 29.59577897 329.61738682 29.70247138 325.04443741 29.73653126 C323.69010717 29.71139016 322.33585084 29.68196497 320.98169738 29.64863533 C317.26514357 29.57005636 313.55055345 29.55392527 309.833269 29.5484525 C305.82227982 29.53196878 301.81225821 29.45850595 297.80182266 29.39317799 C289.03283459 29.26176069 280.26433402 29.20555597 271.49451804 29.16526628 C266.01367315 29.13988323 260.53300405 29.09945531 255.0522747 29.0562315 C239.86418191 28.93911754 224.67623469 28.84033307 209.48769283 28.81035423 C208.5158684 28.80841013 207.54404397 28.80646604 206.54277031 28.80446303 C205.56866889 28.80253571 204.59456746 28.80060839 203.59094781 28.79862267 C201.61717707 28.79471313 199.64340639 28.79077518 197.66963577 28.78680897 C196.69058518 28.78485698 195.7115346 28.78290499 194.70281581 28.78089385 C178.85675668 28.74580632 163.01505326 28.57930801 147.17064538 28.3554349 C130.88558142 28.12720055 114.60269331 28.008565 98.31600314 27.99895138 C89.17773875 27.99105121 80.04505592 27.93713294 70.90831947 27.76239681 C63.12215884 27.61403831 55.34334785 27.56675224 47.55605867 27.64754916 C43.58495661 27.68581276 39.62855334 27.67881907 35.65927505 27.54267979 C12.48719481 26.7938301 2.84627391 33.62767887 -6.21042264 54.40707364 Z M150.17964554 101.13422108 C146.58181867 106.24891191 146.58181867 106.24891191 145.17964554 112.13422108 C163.65964554 112.13422108 182.13964554 112.13422108 201.17964554 112.13422108 C198.12842436 102.98055755 193.82837255 97.4761633 185.17964554 93.13422108 C173.41960538 87.52147464 158.53076268 91.44777302 150.17964554 101.13422108 Z M-14.82035446 144.13422108 C-14.82035446 255.34422108 -14.82035446 366.55422108 -14.82035446 481.13422108 C32.03964554 481.13422108 78.89964554 481.13422108 127.17964554 481.13422108 C127.42911475 446.08680459 127.42911475 446.08680459 127.65767288 411.03925037 C127.71211624 404.23346424 127.71211624 404.23346424 127.74010086 401.03908253 C127.75769097 398.82625772 127.77153738 396.61340109 127.78233719 394.40053272 C127.79952209 391.03257407 127.82889522 387.66491021 127.86079788 384.29706287 C127.86297003 383.32485892 127.86514217 382.35265497 127.86738014 381.3509903 C128.03824276 367.22453252 131.2809992 354.43067879 141.19527054 343.88031483 C152.35748422 334.0584457 164.832108 331.4559231 179.25581741 331.99799061 C190.15081274 332.76948901 200.96165225 339.13709613 208.17964554 347.13422108 C219.52656894 362.41504779 218.64414825 379.90688924 218.69136429 398.12640858 C218.70686015 400.25670822 218.72366225 402.38699876 218.74177933 404.51727772 C218.79933826 412.34782546 218.83177114 420.17854169 218.86714554 428.00922108 C218.97027054 445.54047108 219.07339554 463.07172108 219.17964554 481.13422108 C266.03964554 481.13422108 312.89964554 481.13422108 361.17964554 481.13422108 C361.17964554 369.92422108 361.17964554 258.71422108 361.17964554 144.13422108 C237.09964554 144.13422108 113.01964554 144.13422108 -14.82035446 144.13422108 Z M160.86714554 368.63422108 C158.41127014 372.27255499 158.05426096 375.30963832 158.05939102 379.63940907 C158.05801636 380.53680805 158.05664169 381.43420704 158.05522537 382.35879993 C158.05882065 383.33559711 158.06241592 384.31239429 158.06612015 385.31879139 C158.06597412 386.35325397 158.06582809 387.38771656 158.06567764 388.4535265 C158.06637437 391.87315435 158.0741556 395.29272774 158.08198929 398.71234608 C158.08385432 401.08317504 158.08527782 403.45400439 158.08627701 405.82483387 C158.09009548 412.06538424 158.09992009 418.30591135 158.11098099 424.54645252 C158.12120948 430.91424717 158.12577772 437.28204558 158.13081741 443.64984608 C158.14154292 456.14464961 158.15913434 468.63942977 158.17964554 481.13422108 C168.07964554 481.13422108 177.97964554 481.13422108 188.17964554 481.13422108 C188.2248479 467.56481889 188.26153389 453.99546679 188.28326988 440.42600632 C188.29370257 434.12502143 188.30785253 427.82409077 188.33052444 421.52313709 C188.35227094 415.44124348 188.36421804 409.35940199 188.36940002 403.2774725 C188.37309251 400.95827444 188.38030299 398.63907921 188.39110565 396.31990337 C188.40564439 393.06906331 188.40762246 389.81843809 188.40669632 386.56757069 C188.41388687 385.61091007 188.42107742 384.65424946 188.42848587 383.66859913 C188.43638374 374.83941873 188.43638374 374.83941873 184.52339554 367.17328358 C183.91495804 366.70664295 183.30652054 366.24000233 182.67964554 365.75922108 C182.07120804 365.2771117 181.46277054 364.79500233 180.83589554 364.29828358 C173.36354106 359.04648727 166.43062207 362.61965186 160.86714554 368.63422108 Z " fill="#000000" transform="translate(82.82035446166992,-0.13422107696533203)"/>
<path d="M0 0 C9.99402746 6.54781109 17.96382661 15.87396422 20.84187317 27.7154541 C22.3132792 35.22921952 22.61483146 42.51265217 22.62890625 50.15625 C22.63889145 52.06879326 22.63889145 52.06879326 22.64907837 54.01997375 C22.65914751 56.69843682 22.66476901 59.37649287 22.66357422 62.05493164 C22.66337013 65.46762107 22.69080745 68.87948617 22.72511864 72.29197979 C22.75281503 75.58003801 22.75153751 78.86809105 22.75390625 82.15625 C22.76827728 83.3710051 22.78264832 84.58576019 22.79745483 85.83732605 C22.75977134 92.8501876 22.14598838 97.52934227 18.29296875 103.45703125 C12.91086173 107.8299932 8.8654599 108.57626213 2.09082031 108.61816406 C0.83561584 108.62777161 -0.41958862 108.63737915 -1.71282959 108.64727783 C-3.08068662 108.65212698 -4.44854577 108.65640552 -5.81640625 108.66015625 C-7.22642009 108.66591371 -8.63643392 108.67167136 -10.04644775 108.6774292 C-13.0019975 108.68792309 -15.95752019 108.69377591 -18.91308594 108.69726562 C-22.68339534 108.70273924 -26.4533416 108.72674944 -30.22353745 108.75523758 C-33.13707492 108.77394877 -36.0505265 108.7790741 -38.96411896 108.7806015 C-40.35307037 108.78361076 -41.7420209 108.79158036 -43.13091278 108.80478668 C-50.62932798 108.87098199 -56.93268469 108.86773367 -63.70703125 105.45703125 C-68.33865966 100.82540284 -69.95173487 96.16316002 -69.98168945 89.69555664 C-69.99122147 88.55989761 -70.00075348 87.42423859 -70.01057434 86.25416565 C-70.00966293 85.03333786 -70.00875153 83.81251007 -70.0078125 82.5546875 C-70.01209763 81.28539902 -70.01638275 80.01611053 -70.02079773 78.70835876 C-70.02654052 76.01921779 -70.02797919 73.33046048 -70.02270508 70.64135742 C-70.01695881 67.23593846 -70.03372696 63.83107202 -70.05704975 60.42574406 C-70.07556597 57.13539774 -70.07159607 53.84507634 -70.0703125 50.5546875 C-70.07952225 49.35207779 -70.08873199 48.14946808 -70.09822083 46.91041565 C-70.01989777 32.27350142 -67.44716724 19.00234917 -57.37890625 7.88671875 C-41.88885231 -6.87267227 -18.87697042 -10.75960074 0 0 Z M-36.01953125 31.95703125 C-38.36743229 35.43540316 -38.83400726 38.34841941 -38.82055664 42.49121094 C-38.82048111 43.27171814 -38.82040558 44.05222534 -38.82032776 44.85638428 C-38.81516647 45.68881653 -38.81000519 46.52124878 -38.8046875 47.37890625 C-38.80327255 48.23889221 -38.8018576 49.09887817 -38.80039978 49.98492432 C-38.79481222 52.72566234 -38.782262 55.46631801 -38.76953125 58.20703125 C-38.76451464 60.06770715 -38.75995202 61.92838434 -38.75585938 63.7890625 C-38.7456987 68.34510917 -38.72612086 72.90097826 -38.70703125 77.45703125 C-28.80703125 77.45703125 -18.90703125 77.45703125 -8.70703125 77.45703125 C-8.66097364 72.17320022 -8.62119212 66.89007342 -8.59716797 61.60620117 C-8.58714665 59.81092969 -8.57352592 58.01567437 -8.55615234 56.22045898 C-8.53173316 53.6313069 -8.52050927 51.04237174 -8.51171875 48.453125 C-8.50139618 47.65805038 -8.49107361 46.86297577 -8.48043823 46.04380798 C-8.47934202 40.52682297 -8.65137961 34.89084522 -12.36328125 30.49609375 C-12.97171875 30.02945313 -13.58015625 29.5628125 -14.20703125 29.08203125 C-14.81546875 28.59992188 -15.42390625 28.1178125 -16.05078125 27.62109375 C-23.52313573 22.36929744 -30.45605472 25.94246203 -36.01953125 31.95703125 Z " fill="#000000" transform="translate(279.70703125,178.54296875)"/>
<path d="M0 0 C9.67047902 7.77253454 16.04294345 17.21633902 18.08984375 29.6796875 C18.40153356 34.60751238 18.42054409 39.53277792 18.42578125 44.46875 C18.43221926 45.9002597 18.43894835 47.33176811 18.44595337 48.76327515 C18.45787203 51.75041761 18.4616394 54.73744484 18.46044922 57.72460938 C18.46024538 61.54222897 18.48763768 65.3591096 18.52199364 69.17655373 C18.54427365 72.12777068 18.54828658 75.07880934 18.54722977 78.03010178 C18.54958059 79.43745871 18.5583749 80.84482094 18.5738945 82.25209427 C18.59358986 84.22086156 18.58518485 86.18984853 18.57568359 88.15869141 C18.57853363 89.27595612 18.58138367 90.39322083 18.58432007 91.54434204 C17.79811365 96.52947205 15.22856216 99.62637297 11.58984375 102.9921875 C7.4029543 105.81833788 3.76973727 105.81052862 -1.2199707 105.84082031 C-2.49842361 105.85042786 -3.77687653 105.8600354 -5.09407043 105.86993408 C-6.48719097 105.87478266 -7.88031358 105.87906134 -9.2734375 105.8828125 C-10.70826722 105.88856919 -12.14309693 105.89432686 -13.57792664 105.90008545 C-16.58475094 105.91057875 -19.59154864 105.91643222 -22.59838867 105.91992188 C-26.43829557 105.92540079 -30.27784685 105.94942263 -34.1176424 105.97789383 C-37.08175156 105.99658183 -40.04577612 106.00172909 -43.00993919 106.00325775 C-44.42483653 106.00627132 -45.83973283 106.01425579 -47.25457191 106.02744293 C-62.95669654 106.16334146 -62.95669654 106.16334146 -68.65234375 101.14453125 C-72.10940346 96.48346109 -73.03686817 94.36661788 -73.0871582 88.58447266 C-73.09999344 87.30198639 -73.11282867 86.01950012 -73.12605286 84.69815063 C-73.13422649 83.28835437 -73.14166902 81.87855371 -73.1484375 80.46875 C-73.15251303 79.75741283 -73.15658855 79.04607567 -73.16078758 78.31318283 C-73.18167002 74.53870687 -73.19595499 70.76426736 -73.20532227 66.98974609 C-73.2163136 63.11877807 -73.25062091 59.24839659 -73.29049397 55.37763405 C-73.31686003 52.37986304 -73.32503224 49.38222654 -73.32860374 46.38434982 C-73.3334286 44.9596097 -73.34492316 43.53487389 -73.36364174 42.11024857 C-73.5542373 26.62567505 -69.75174313 15.08953441 -59.41015625 3.5546875 C-43.51864608 -11.78353992 -17.60473075 -12.79765237 0 0 Z M-39.72265625 28.7421875 C-41.58864136 31.78668952 -42.03442224 34.29324021 -42.02368164 37.78393555 C-42.02360611 38.60455978 -42.02353058 39.42518402 -42.02345276 40.27067566 C-42.01829147 41.15201675 -42.01313019 42.03335785 -42.0078125 42.94140625 C-42.00639755 43.84719925 -42.0049826 44.75299225 -42.00352478 45.68623352 C-41.99792626 48.57991841 -41.98537406 51.47352599 -41.97265625 54.3671875 C-41.96764106 56.32877492 -41.96307818 58.29036356 -41.95898438 60.25195312 C-41.94880812 65.06125168 -41.92923238 69.87038303 -41.91015625 74.6796875 C-32.34015625 74.6796875 -22.77015625 74.6796875 -12.91015625 74.6796875 C-12.84115545 68.95006551 -12.78146079 63.22189446 -12.74536133 57.4921875 C-12.73030726 55.54454656 -12.70985945 53.59693934 -12.68383789 51.64941406 C-12.64730572 48.84431622 -12.63039592 46.03966796 -12.6171875 43.234375 C-12.60170364 42.36851776 -12.58621979 41.50266052 -12.57026672 40.61056519 C-12.5688658 35.53842908 -13.08123907 32.06882086 -15.91015625 27.6796875 C-20.56530171 23.47870257 -23.44051584 22.3253266 -29.58984375 22.39453125 C-34.06786536 22.9448605 -36.83728312 25.45883187 -39.72265625 28.7421875 Z " fill="#000000" transform="translate(403.91015625,181.3203125)"/>
<path d="M0 0 C0.74838135 0.00563965 1.4967627 0.0112793 2.26782227 0.01708984 C14.615562 0.28705883 24.3903276 5.07227527 33.4375 13.4375 C41.32704335 21.70406577 45.90158423 32.65119809 45.97802734 44.07055664 C45.99078705 45.3720314 46.00354675 46.67350616 46.01669312 48.01441956 C46.01975015 49.41716359 46.02197824 50.81990964 46.0234375 52.22265625 C46.02987327 53.67801542 46.0366022 55.13337333 46.04360962 56.58872986 C46.05554118 59.6289266 46.05929441 62.66901003 46.05810547 65.70922852 C46.05790181 69.59525326 46.08526932 73.48055051 46.11964989 77.36640263 C46.14193096 80.36823336 46.14594276 83.3698888 46.14488602 86.37179375 C46.14723764 87.80427 46.15603648 89.23675141 46.17155075 90.66914558 C46.19124367 92.67394639 46.18284173 94.67896288 46.17333984 96.68383789 C46.17618988 97.8218837 46.17903992 98.9599295 46.18197632 100.13246155 C45.40199449 105.14862133 42.84802962 108.2390101 39.1875 111.625 C35.00061055 114.45115038 31.36739352 114.44334112 26.37768555 114.47363281 C25.09923264 114.48324036 23.82077972 114.4928479 22.50358582 114.50274658 C21.11046528 114.50759516 19.71734267 114.51187384 18.32421875 114.515625 C16.88938903 114.52138169 15.45455932 114.52713936 14.01972961 114.53289795 C11.01290531 114.54339125 8.00610761 114.54924472 4.99926758 114.55273438 C1.15936068 114.55821329 -2.6801906 114.58223513 -6.51998615 114.61070633 C-9.48409531 114.62939433 -12.44811987 114.63454159 -15.41228294 114.63607025 C-16.82718028 114.63908382 -18.24207658 114.64706829 -19.65691566 114.66025543 C-35.35904029 114.79615396 -35.35904029 114.79615396 -41.0546875 109.77734375 C-44.47993213 105.1591691 -45.4387751 103.05023535 -45.48950195 97.32495117 C-45.50233719 96.06571335 -45.51517242 94.80647552 -45.52839661 93.50907898 C-45.53657129 92.12454626 -45.54401361 90.74000906 -45.55078125 89.35546875 C-45.55485678 88.6564123 -45.5589323 87.95735584 -45.56313133 87.23711586 C-45.5840167 83.52632569 -45.59829924 79.8155726 -45.60766602 76.10473633 C-45.61864566 72.30336344 -45.65293797 68.50258977 -45.69283772 64.70142651 C-45.71923886 61.75422729 -45.72737912 58.80716457 -45.73094749 55.85985756 C-45.73576504 54.46106298 -45.74723771 53.06227244 -45.76598549 51.6635952 C-45.96362637 35.92080236 -42.30253841 23.79713767 -31.6875 12.125 C-23.15875902 3.92365791 -11.68671707 -0.09244776 0 0 Z M-12.125 37.375 C-13.99098511 40.41950202 -14.43676599 42.92605271 -14.42602539 46.41674805 C-14.42594986 47.23737228 -14.42587433 48.05799652 -14.42579651 48.90348816 C-14.42063522 49.78482925 -14.41547394 50.66617035 -14.41015625 51.57421875 C-14.4087413 52.48001175 -14.40732635 53.38580475 -14.40586853 54.31904602 C-14.40027001 57.21273091 -14.38771781 60.10633849 -14.375 63 C-14.36998481 64.96158742 -14.36542193 66.92317606 -14.36132812 68.88476562 C-14.35115187 73.69406418 -14.33157613 78.50319553 -14.3125 83.3125 C-4.7425 83.3125 4.8275 83.3125 14.6875 83.3125 C14.7565008 77.58287801 14.81619546 71.85470696 14.85229492 66.125 C14.86734899 64.17735906 14.8877968 62.22975184 14.91381836 60.28222656 C14.95035053 57.47712872 14.96726033 54.67248046 14.98046875 51.8671875 C14.99595261 51.00133026 15.01143646 50.13547302 15.02738953 49.24337769 C15.02879045 44.17124158 14.51641718 40.70163336 11.6875 36.3125 C7.03235454 32.11151507 4.15714041 30.9581391 -1.9921875 31.02734375 C-6.47020911 31.577673 -9.23962687 34.09164437 -12.125 37.375 Z " fill="#000000" transform="translate(135.3125,172.6875)"/>
<path d="M0 0 C11.20089033 7.04541668 18.38907545 16.58822616 21.79244995 29.36904907 C22.99619891 35.44474056 22.89250825 41.55520234 22.875 47.7265625 C22.87957294 49.15378566 22.88488178 50.58100663 22.8908844 52.00822449 C22.89975248 54.97749877 22.89746094 57.9465031 22.88745117 60.91577148 C22.87590269 64.7098069 22.89629323 68.50291962 22.92536831 72.29683399 C22.94374597 75.23520244 22.94343597 78.17334958 22.93773079 81.11176109 C22.93757812 82.51073194 22.94357741 83.9097183 22.95602226 85.3086338 C22.97097701 87.26275091 22.95760207 89.21702195 22.94311523 91.17114258 C22.94294907 92.27935867 22.9427829 93.38757477 22.94261169 94.52937317 C22.1432855 99.4974506 19.5700603 102.60052625 15.94140625 105.95703125 C11.7545168 108.78318163 8.12129977 108.77537237 3.1315918 108.80566406 C1.85313889 108.81527161 0.57468597 108.82487915 -0.74250793 108.83477783 C-2.13562847 108.83962641 -3.52875108 108.84390509 -4.921875 108.84765625 C-6.35670472 108.85341294 -7.79153443 108.85917061 -9.22636414 108.8649292 C-12.23318844 108.8754225 -15.23998614 108.88127597 -18.24682617 108.88476562 C-22.08673307 108.89024454 -25.92628435 108.91426638 -29.7660799 108.94273758 C-32.73018906 108.96142558 -35.69421362 108.96657284 -38.65837669 108.9681015 C-40.07327403 108.97111507 -41.48817033 108.97909954 -42.90300941 108.99228668 C-58.60513404 109.12818521 -58.60513404 109.12818521 -64.30078125 104.109375 C-67.75784096 99.44830484 -68.68530567 97.33146163 -68.7355957 91.54931641 C-68.74843094 90.26683014 -68.76126617 88.98434387 -68.77449036 87.66299438 C-68.78266399 86.25319812 -68.79010652 84.84339746 -68.796875 83.43359375 C-68.80095053 82.72225658 -68.80502605 82.01091942 -68.80922508 81.27802658 C-68.83010752 77.50355062 -68.84439249 73.72911111 -68.85375977 69.95458984 C-68.8647511 66.08362182 -68.89905841 62.21324034 -68.93893147 58.3424778 C-68.96529753 55.34470679 -68.97346974 52.34707029 -68.97704124 49.34919357 C-68.9818661 47.92445345 -68.99336066 46.49971764 -69.01207924 45.07509232 C-69.20314068 29.55266903 -65.40300063 17.9473139 -54.93359375 6.45703125 C-40.32123487 -7.59439255 -17.50642287 -9.27439501 0 0 Z M-34.87109375 31.14453125 C-37.08515876 34.42462757 -37.68402151 36.88050797 -37.67211914 40.7487793 C-37.67204361 41.56940353 -37.67196808 42.39002777 -37.67189026 43.23551941 C-37.66672897 44.1168605 -37.66156769 44.9982016 -37.65625 45.90625 C-37.65483505 46.812043 -37.6534201 47.717836 -37.65196228 48.65107727 C-37.64636376 51.54476216 -37.63381156 54.43836974 -37.62109375 57.33203125 C-37.61607856 59.29361867 -37.61151568 61.25520731 -37.60742188 63.21679688 C-37.59724562 68.02609543 -37.57766988 72.83522678 -37.55859375 77.64453125 C-27.98859375 77.64453125 -18.41859375 77.64453125 -8.55859375 77.64453125 C-8.46651127 71.93285961 -8.38695056 66.22378677 -8.33886719 60.51196289 C-8.31881347 58.57111867 -8.2915633 56.6303344 -8.25683594 54.68969727 C-8.208042 51.89193893 -8.18556248 49.0949828 -8.16796875 46.296875 C-8.14732361 45.43617905 -8.12667847 44.57548309 -8.10540771 43.68870544 C-8.1032481 37.82494733 -9.2014515 34.47635763 -12.55859375 29.64453125 C-15.70560618 26.71758962 -18.89384538 25.72616701 -23.12109375 25.20703125 C-28.25701998 25.86069459 -31.34889637 27.33675029 -34.87109375 31.14453125 Z " fill="#000000" transform="translate(399.55859375,336.35546875)"/>
<path d="M0 0 C9.66264024 7.76623421 15.04306617 16.60200086 18.08984375 28.6796875 C18.35726929 31.97998047 18.35726929 31.97998047 18.38037109 35.421875 C18.3931308 36.72012207 18.4058905 38.01836914 18.41903687 39.35595703 C18.42209422 40.75553232 18.42432214 42.15510963 18.42578125 43.5546875 C18.43221767 45.00765104 18.43894665 46.46061331 18.44595337 47.91357422 C18.45788611 50.94957484 18.46163812 53.98546198 18.46044922 57.02148438 C18.46024575 60.8984438 18.48759407 64.77467255 18.52199364 68.65145874 C18.54429903 71.64904075 18.54828573 74.64644752 18.54722977 77.644104 C18.54957847 79.07296273 18.55836065 80.50182682 18.5738945 81.93060303 C18.71104266 95.84193703 18.71104266 95.84193703 14.08984375 101.6796875 C9.1622981 105.37534674 4.81890898 105.80415927 -1.2199707 105.84082031 C-2.49842361 105.85042786 -3.77687653 105.8600354 -5.09407043 105.86993408 C-6.48719097 105.87478266 -7.88031358 105.87906134 -9.2734375 105.8828125 C-10.70826722 105.88856919 -12.14309693 105.89432686 -13.57792664 105.90008545 C-16.58475094 105.91057875 -19.59154864 105.91643222 -22.59838867 105.91992188 C-26.43829557 105.92540079 -30.27784685 105.94942263 -34.1176424 105.97789383 C-37.08175156 105.99658183 -40.04577612 106.00172909 -43.00993919 106.00325775 C-44.42483653 106.00627132 -45.83973283 106.01425579 -47.25457191 106.02744293 C-62.95669654 106.16334146 -62.95669654 106.16334146 -68.65234375 101.14453125 C-72.07758838 96.5263566 -73.03643135 94.41742285 -73.0871582 88.69213867 C-73.09999344 87.43290085 -73.11282867 86.17366302 -73.12605286 84.87626648 C-73.13422754 83.49173376 -73.14166986 82.10719656 -73.1484375 80.72265625 C-73.15251303 80.0235998 -73.15658855 79.32454334 -73.16078758 78.60430336 C-73.18167295 74.89351319 -73.19595549 71.1827601 -73.20532227 67.47192383 C-73.21630191 63.67055094 -73.25059422 59.86977727 -73.29049397 56.06861401 C-73.31689511 53.12141479 -73.32503537 50.17435207 -73.32860374 47.22704506 C-73.33342129 45.82825048 -73.34489396 44.42945994 -73.36364174 43.0307827 C-73.5543975 27.83641387 -70.39644622 15.63919066 -59.80859375 4.4609375 C-43.39927589 -11.07862853 -18.48787476 -13.43964856 0 0 Z M-37.91015625 26.6796875 C-41.86789406 32.37593166 -42.4649681 36.48708145 -42.30078125 43.33203125 C-42.29512146 44.23216446 -42.28946167 45.13229767 -42.28363037 46.05970764 C-42.26137855 48.91275981 -42.21120424 51.76451994 -42.16015625 54.6171875 C-42.14007673 56.56052864 -42.12182851 58.50388961 -42.10546875 60.44726562 C-42.06496487 65.19229503 -41.98665631 69.93455853 -41.91015625 74.6796875 C-32.34015625 74.6796875 -22.77015625 74.6796875 -12.91015625 74.6796875 C-12.84115545 68.95006551 -12.78146079 63.22189446 -12.74536133 57.4921875 C-12.73030726 55.54454656 -12.70985945 53.59693934 -12.68383789 51.64941406 C-12.64730572 48.84431622 -12.63039592 46.03966796 -12.6171875 43.234375 C-12.60170364 42.36851776 -12.58621979 41.50266052 -12.57026672 40.61056519 C-12.56886539 35.53691506 -13.08554051 32.07259861 -15.91015625 27.6796875 C-19.56181019 24.3019076 -22.16868893 22.84713628 -27.16015625 22.3671875 C-31.53445882 22.73171271 -34.67027676 23.66637301 -37.91015625 26.6796875 Z " fill="#000000" transform="translate(162.91015625,339.3203125)"/>
</svg>
