<?xml version="1.0" encoding="UTF-8"?>
<svg version="1.1" xmlns="http://www.w3.org/2000/svg" width="512" height="512">
<path d="M0 0 C0.87269531 -0.0038269 1.74539063 -0.00765381 2.64453125 -0.01159668 C4.48699092 -0.0143149 6.32948924 -0.00695994 8.171875 0.00976562 C10.99045934 0.03117752 13.80649485 0.00996199 16.625 -0.015625 C18.41667229 -0.01298171 20.20834299 -0.00785669 22 0 C22.84175781 -0.00809692 23.68351563 -0.01619385 24.55078125 -0.02453613 C25.33839844 -0.01192749 26.12601563 0.00068115 26.9375 0.01367188 C27.97197266 0.01844543 27.97197266 0.01844543 29.02734375 0.02331543 C31.97949756 0.7834585 33.17185771 2.1286831 35 4.53125 C35.4315033 7.17138672 35.4315033 7.17138672 35.33959961 10.2109375 C35.31735825 11.35312744 35.29511688 12.49531738 35.27220154 13.67211914 C35.21287193 15.52051392 35.21287193 15.52051392 35.15234375 17.40625 C35.12296625 20.02731503 35.09636297 22.64841235 35.07226562 25.26953125 C35.01957102 29.39376781 34.94298851 33.51565918 34.81176758 37.63818359 C33.53277177 53.55634043 33.53277177 53.55634043 38.77636719 67.91064453 C41.85069886 71.04795279 45.26869147 73.23914094 49 75.53125 C50.82369759 77.1202187 52.62201146 78.73959898 54.375 80.40625 C57.23309943 82.97527575 60.12258609 85.4939746 63.0625 87.96875 C66.74483753 91.18100188 66.91990898 91.53812141 67.3125 96.40625 C67.46516145 99.17521288 67.15040487 100.30186735 65.61401367 102.64501953 C61.55906802 105.57100348 57.6114369 104.95827711 52.75 104.78125 C51.81414062 104.76320313 50.87828125 104.74515625 49.9140625 104.7265625 C47.60832985 104.67950673 45.30469055 104.61378713 43 104.53125 C43.00888245 105.77517517 43.01776489 107.01910034 43.0269165 108.30072021 C43.10794139 120.01347494 43.16793621 131.72617293 43.20724869 143.43914413 C43.22813898 149.46117568 43.25648342 155.4829813 43.30175781 161.50488281 C43.3451634 167.31445797 43.36912624 173.12381558 43.37950897 178.93354034 C43.3869098 181.15197424 43.40136157 183.370396 43.42292023 185.58873749 C43.45188334 188.69190871 43.4559589 191.79417668 43.45410156 194.89746094 C43.46848267 195.81815369 43.48286377 196.73884644 43.49768066 197.68743896 C43.49218201 198.53435303 43.48668335 199.38126709 43.48101807 200.25384521 C43.48470524 200.98759243 43.48839241 201.72133965 43.49219131 202.47732162 C42.76899829 205.49522671 41.44688961 206.67114997 39 208.53125 C36.39501953 209.03461456 36.39501953 209.03461456 33.3828125 209.03918457 C31.66674805 209.05610352 31.66674805 209.05610352 29.91601562 209.07336426 C28.66498047 209.06526733 27.41394531 209.05717041 26.125 209.04882812 C24.79100785 209.05424968 23.4570217 209.06137254 22.12304688 209.07006836 C18.50314652 209.08830113 14.88370226 209.08123474 11.26379395 209.06855202 C7.4753293 209.05842395 3.68690368 209.06781715 -0.1015625 209.07409668 C-6.46361298 209.08137368 -12.82547772 209.07178413 -19.1875 209.05273438 C-26.54260137 209.03096536 -33.89725923 209.03801671 -41.25234985 209.06004 C-47.56755367 209.07819262 -53.88262398 209.08075305 -60.19784546 209.07028532 C-63.96953603 209.06404956 -67.74101814 209.06321682 -71.51269531 209.07643127 C-75.05872353 209.08798735 -78.60418003 209.07996944 -82.15014648 209.05685425 C-84.07209487 209.04904314 -85.99409162 209.06092522 -87.91601562 209.07336426 C-89.06005859 209.06208496 -90.20410156 209.05080566 -91.3828125 209.03918457 C-92.37684082 209.03767647 -93.37086914 209.03616837 -94.39501953 209.03461456 C-97.77071618 208.38232327 -98.95280891 207.25710626 -101 204.53125 C-101.49219131 202.47732162 -101.49219131 202.47732162 -101.48101807 200.25384521 C-101.48651672 199.40693115 -101.49201538 198.56001709 -101.49768066 197.68743896 C-101.48329956 196.76674622 -101.46891846 195.84605347 -101.45410156 194.89746094 C-101.45468567 193.92151978 -101.45526978 192.94557861 -101.45587158 191.94006348 C-101.45308531 188.7148886 -101.42196686 185.49063839 -101.390625 182.265625 C-101.38316456 180.02932236 -101.3774707 177.79301318 -101.37347412 175.55670166 C-101.35820238 169.67108101 -101.31890682 163.78585526 -101.2746582 157.90039062 C-101.233739 151.8945856 -101.21547024 145.88871675 -101.1953125 139.8828125 C-101.15241444 128.09878484 -101.08414411 116.31505026 -101 104.53125 C-101.87736816 104.5626709 -101.87736816 104.5626709 -102.77246094 104.59472656 C-105.43146465 104.67805115 -108.09019355 104.72995897 -110.75 104.78125 C-111.67039062 104.81476563 -112.59078125 104.84828125 -113.5390625 104.8828125 C-120.33631558 104.98132341 -120.33631558 104.98132341 -123.609375 102.76171875 C-125.68894518 99.42622837 -125.7238866 96.28641173 -125 92.53125 C-122.63063564 88.48358588 -118.99963535 85.69713943 -115.46484375 82.67578125 C-112.46107035 80.06235558 -109.54298708 77.36465789 -106.625 74.65625 C-101.96099909 70.33332172 -97.26305172 66.05307755 -92.52734375 61.80859375 C-89.66917797 59.23315225 -86.83289739 56.63439236 -84 54.03125 C-79.54667383 49.93955793 -75.06340112 45.88302023 -70.5625 41.84375 C-67.69399573 39.25509981 -64.84525184 36.64537873 -62 34.03125 C-57.53423777 29.92870782 -53.04315818 25.85599307 -48.52734375 21.80859375 C-46.6780661 20.1422431 -44.83742538 18.4686655 -43.00390625 16.78515625 C-42.25282593 16.09691772 -42.25282593 16.09691772 -41.48657227 15.39477539 C-40.07290717 14.09812248 -38.66139429 12.79912429 -37.25 11.5 C-33.9934164 8.65048935 -31.60744795 8.02311722 -27.23046875 8.0390625 C-23.55210561 8.85075034 -21.38657831 11.21709775 -18.76171875 13.8046875 C-16.9128925 15.72381678 -16.9128925 15.72381678 -14 17.53125 C-13.97421875 16.63921875 -13.9484375 15.7471875 -13.921875 14.828125 C-13.83679688 13.07242188 -13.83679688 13.07242188 -13.75 11.28125 C-13.70359375 10.12109375 -13.6571875 8.9609375 -13.609375 7.765625 C-12.1244912 -0.11568133 -6.82024039 -0.06560434 0 0 Z M3 16.53125 C1.42355259 26.85043779 1.42355259 26.85043779 4.22753906 36.54541016 C8.20605738 41.17706234 13.16785775 45.58720258 19 47.53125 C19 37.30125 19 27.07125 19 16.53125 C13.72 16.53125 8.44 16.53125 3 16.53125 Z M-33.6328125 31.78515625 C-34.35726562 32.47544922 -35.08171875 33.16574219 -35.828125 33.87695312 C-36.58609375 34.60849609 -37.3440625 35.34003906 -38.125 36.09375 C-43.04061951 40.806708 -47.98432173 45.44524805 -53.13330078 49.90307617 C-55.93456386 52.34639601 -58.6547565 54.87352133 -61.375 57.40625 C-65.24692222 60.99613019 -69.13175359 64.56810467 -73.0625 68.09375 C-76.8286191 71.47218036 -80.57805068 74.86789566 -84.3125 78.28125 C-85.27800781 79.16296875 -86.24351562 80.0446875 -87.23828125 80.953125 C-89.88145153 83.4205824 -92.44317627 85.97442627 -95 88.53125 C-51.44 88.53125 -7.88 88.53125 37 88.53125 C35.35 86.88125 33.7 85.23125 32 83.53125 C31.35417969 82.87382812 30.70835937 82.21640625 30.04296875 81.5390625 C26.26792832 77.70838989 22.39980976 74.0774026 18.32421875 70.5703125 C15.37589578 67.98371655 12.50085394 65.32288286 9.625 62.65625 C4.9621093 58.33482349 0.26599373 54.0553223 -4.46875 49.8125 C-7.35002047 47.21579945 -10.20694885 44.59364491 -13.0625 41.96875 C-15.04086887 40.15537716 -17.02048378 38.34337089 -19 36.53125 C-19.88816406 35.71398437 -20.77632813 34.89671875 -21.69140625 34.0546875 C-22.49449219 33.32507813 -23.29757812 32.59546875 -24.125 31.84375 C-24.82882812 31.20050781 -25.53265625 30.55726563 -26.2578125 29.89453125 C-29.63268382 27.2536566 -30.93297979 29.18926609 -33.6328125 31.78515625 Z M-85 104.53125 C-85 133.57125 -85 162.61125 -85 192.53125 C-77.08 192.53125 -69.16 192.53125 -61 192.53125 C-60.96261719 188.81230469 -60.92523438 185.09335937 -60.88671875 181.26171875 C-60.84053314 177.66750133 -60.78928859 174.07338929 -60.73754883 170.47924805 C-60.70425529 167.97768535 -60.67623732 165.47604673 -60.65356445 162.97436523 C-60.6201004 159.38231998 -60.56778757 155.79097334 -60.51171875 152.19921875 C-60.50532883 151.07726608 -60.4989389 149.95531342 -60.49235535 148.79936218 C-60.47256119 147.75850967 -60.45276703 146.71765717 -60.43237305 145.64526367 C-60.42126999 144.72815109 -60.41016693 143.81103851 -60.39872742 142.86613464 C-60 140.53125 -60 140.53125 -58.81257629 138.73588562 C-56.3155584 137.07637109 -54.55511492 137.15035189 -51.56640625 137.14306641 C-50.45515381 137.13360992 -49.34390137 137.12415344 -48.19897461 137.1144104 C-46.99893799 137.12048309 -45.79890137 137.12655579 -44.5625 137.1328125 C-43.33088135 137.12994232 -42.0992627 137.12707214 -40.83032227 137.12411499 C-37.55652043 137.12154842 -34.28314463 137.1336339 -31.00939941 137.15039062 C-29.00189615 137.15624447 -26.99478631 137.15041205 -24.98730469 137.14013672 C-21.13718305 137.1216402 -17.28764566 137.12384008 -13.4375 137.1328125 C-11.63744507 137.12370346 -11.63744507 137.12370346 -9.80102539 137.1144104 C-8.13414673 137.12859512 -8.13414673 137.12859512 -6.43359375 137.14306641 C-4.96490845 137.14664658 -4.96490845 137.14664658 -3.46655273 137.15029907 C-1 137.53125 -1 137.53125 0.81257629 138.73588562 C2.40100185 141.13755795 2.39760056 142.77305628 2.43237305 145.64526367 C2.45216721 146.68611618 2.47196136 147.72696869 2.49235535 148.79936218 C2.49874527 149.92131485 2.50513519 151.04326752 2.51171875 152.19921875 C2.52966995 153.34916824 2.54762115 154.49911774 2.56611633 155.68391418 C2.62036261 159.36215532 2.65416171 163.04026564 2.6875 166.71875 C2.72066034 169.21030472 2.75514878 171.70184215 2.79101562 174.19335938 C2.87860109 180.30600993 2.93855022 186.41805681 3 192.53125 C10.92 192.53125 18.84 192.53125 27 192.53125 C27 163.49125 27 134.45125 27 104.53125 C-9.96 104.53125 -46.92 104.53125 -85 104.53125 Z M-45 152.53125 C-45 165.73125 -45 178.93125 -45 192.53125 C-34.44 192.53125 -23.88 192.53125 -13 192.53125 C-13 179.33125 -13 166.13125 -13 152.53125 C-23.56 152.53125 -34.12 152.53125 -45 152.53125 Z " fill="#000000" transform="translate(389,223.46875)"/>
<path d="M0 0 C1.18142578 -0.01891296 1.18142578 -0.01891296 2.38671875 -0.03820801 C3.22847656 -0.03011108 4.07023437 -0.02201416 4.9375 -0.01367188 C5.81019531 -0.01749878 6.68289062 -0.02132568 7.58203125 -0.02526855 C9.42449092 -0.02798678 11.26698924 -0.02063182 13.109375 -0.00390625 C15.92795934 0.01750565 18.74399485 -0.00370989 21.5625 -0.02929688 C23.35417229 -0.02665358 25.14584299 -0.02152857 26.9375 -0.01367188 C27.77925781 -0.0217688 28.62101562 -0.02986572 29.48828125 -0.03820801 C33.30968962 0.02296736 35.3045285 0.05845953 38.46191406 2.34863281 C40.49294589 5.33402109 40.54425955 7.68656693 40.6875 11.26757812 C40.74421875 12.43804687 40.8009375 13.60851562 40.859375 14.81445312 C40.88515625 15.70648438 40.9109375 16.59851563 40.9375 17.51757812 C41.75154297 16.79441406 41.75154297 16.79441406 42.58203125 16.05664062 C43.29746094 15.425 44.01289063 14.79335937 44.75 14.14257812 C45.45769531 13.51609375 46.16539062 12.88960937 46.89453125 12.24414062 C50.4841067 9.21050325 52.97513557 7.87785075 57.76953125 8.01757812 C62.13712511 9.02487905 64.85743585 12.44319675 67.9375 15.51757812 C69.51403631 16.94180499 71.09774039 18.35812672 72.6875 19.76757812 C76.97211123 23.63161402 81.22689781 27.52726614 85.47558594 31.43066406 C88.61345143 34.3112286 91.76736695 37.17258693 94.9375 40.01757812 C99.14434327 43.79295029 103.31424853 47.60738261 107.4765625 51.43164062 C110.61417086 54.31180419 113.76770941 57.17289426 116.9375 60.01757812 C120.62580577 63.32759612 124.28808695 66.66479938 127.9375 70.01757812 C137.8400836 79.13160617 137.8400836 79.13160617 148 87.95507812 C151.68233753 91.16733001 151.85740898 91.52444954 152.25 96.39257812 C152.40266145 99.161541 152.08790487 100.28819547 150.55151367 102.63134766 C146.49656802 105.5573316 142.5489369 104.94460524 137.6875 104.76757812 C136.75164062 104.74953125 135.81578125 104.73148437 134.8515625 104.71289062 C132.54582985 104.66583486 130.24219055 104.60011525 127.9375 104.51757812 C127.94638245 105.7615033 127.95526489 107.00542847 127.9644165 108.28704834 C128.04544139 119.99980306 128.10543621 131.71250105 128.14474869 143.42547226 C128.16563898 149.44750381 128.19398342 155.46930943 128.23925781 161.49121094 C128.2826634 167.30078609 128.30662624 173.1101437 128.31700897 178.91986847 C128.3244098 181.13830237 128.33886157 183.35672413 128.36042023 185.57506561 C128.38938334 188.67823684 128.3934589 191.78050481 128.39160156 194.88378906 C128.40598267 195.80448181 128.42036377 196.72517456 128.43518066 197.67376709 C128.42968201 198.52068115 128.42418335 199.36759521 128.41851807 200.24017334 C128.42220524 200.97392056 128.42589241 201.70766777 128.42969131 202.46364975 C127.70649829 205.48155484 126.38438961 206.65747809 123.9375 208.51757812 C121.33251953 209.02094269 121.33251953 209.02094269 118.3203125 209.0255127 C116.60424805 209.04243164 116.60424805 209.04243164 114.85351562 209.05969238 C113.60248047 209.05159546 112.35144531 209.04349854 111.0625 209.03515625 C109.72850785 209.04057781 108.3945217 209.04770067 107.06054688 209.05639648 C103.44064652 209.07462926 99.82120226 209.06756286 96.20129395 209.05488014 C92.4128293 209.04475208 88.62440368 209.05414527 84.8359375 209.0604248 C78.47388702 209.06770181 72.11202228 209.05811225 65.75 209.0390625 C58.39489863 209.01729349 51.04024077 209.02434484 43.68515015 209.04636812 C37.36994633 209.06452074 31.05487602 209.06708117 24.73965454 209.05661345 C20.96796397 209.05037769 17.19648186 209.04954494 13.42480469 209.0627594 C9.87877647 209.07431547 6.33331997 209.06629756 2.78735352 209.04318237 C0.86540513 209.03537126 -1.05659162 209.04725335 -2.97851562 209.05969238 C-4.12255859 209.04841309 -5.26660156 209.03713379 -6.4453125 209.0255127 C-7.43934082 209.02400459 -8.43336914 209.02249649 -9.45751953 209.02094269 C-12.83321618 208.3686514 -14.01530891 207.24343438 -16.0625 204.51757812 C-16.55469131 202.46364975 -16.55469131 202.46364975 -16.54351807 200.24017334 C-16.54901672 199.39325928 -16.55451538 198.54634521 -16.56018066 197.67376709 C-16.54579956 196.75307434 -16.53141846 195.83238159 -16.51660156 194.88378906 C-16.51718567 193.9078479 -16.51776978 192.93190674 -16.51837158 191.9263916 C-16.51558531 188.70121672 -16.48446686 185.47696652 -16.453125 182.25195312 C-16.44566456 180.01565048 -16.4399707 177.7793413 -16.43597412 175.54302979 C-16.42070238 169.65740913 -16.38140682 163.77218339 -16.3371582 157.88671875 C-16.296239 151.88091372 -16.27797024 145.87504488 -16.2578125 139.86914062 C-16.21491444 128.08511296 -16.14664411 116.30137838 -16.0625 104.51757812 C-16.93986816 104.54899902 -16.93986816 104.54899902 -17.83496094 104.58105469 C-20.49396465 104.66437928 -23.15269355 104.71628709 -25.8125 104.76757812 C-26.73289062 104.80109375 -27.65328125 104.83460938 -28.6015625 104.86914062 C-35.39881558 104.96765154 -35.39881558 104.96765154 -38.671875 102.74804688 C-40.75144518 99.4125565 -40.7863866 96.27273986 -40.0625 92.51757812 C-37.69668844 88.47598338 -34.07439659 85.6923679 -30.54296875 82.67773438 C-26.88582624 79.49285279 -23.34999179 76.17965123 -19.80688477 72.86889648 C-19.01689087 72.13425171 -19.01689087 72.13425171 -18.2109375 71.38476562 C-17.74864746 70.95276855 -17.28635742 70.52077148 -16.81005859 70.07568359 C-15.0625 68.51757812 -15.0625 68.51757812 -11.90722656 66.66674805 C-9.64677102 64.77218177 -9.10902151 63.75207112 -8.52713013 60.81903076 C-8.33628977 57.28769812 -8.33732335 53.79969004 -8.3984375 50.26367188 C-8.3919909 48.28828064 -8.38552351 46.3128892 -8.37781715 44.33750248 C-8.37399918 41.57721961 -8.39670829 38.8174178 -8.42010498 36.05725098 C-8.46010902 31.22279765 -8.4815864 26.38857808 -8.46792603 21.55397034 C-8.46333513 18.98193711 -8.47817584 16.40978174 -8.51425171 13.83799744 C-8.51389923 12.67321365 -8.51354675 11.50842987 -8.51318359 10.30834961 C-8.52239838 9.28418442 -8.53161316 8.26001923 -8.54110718 7.20481873 C-7.68520154 2.3991566 -4.82846873 0.0222809 0 0 Z M7.9375 16.51757812 C7.9375 26.74757812 7.9375 36.97757812 7.9375 47.51757812 C11.37869708 45.79697959 12.85838671 44.80449242 15.375 42.14257812 C17.41789987 39.9906604 19.0852972 38.42744746 21.640625 36.86914062 C24.22075914 34.22757472 24.29025618 33.70571941 24.42578125 30.18945312 C24.39268977 28.54811569 24.33325882 26.90713648 24.25 25.26757812 C24.22744141 24.42710937 24.20488281 23.58664063 24.18164062 22.72070312 C24.12287714 20.65222848 24.03319885 18.58467324 23.9375 16.51757812 C18.6575 16.51757812 13.3775 16.51757812 7.9375 16.51757812 Z M51.3046875 31.77148438 C50.58023438 32.46177734 49.85578125 33.15207031 49.109375 33.86328125 C48.35140625 34.59482422 47.5934375 35.32636719 46.8125 36.08007812 C41.89688049 40.79303613 36.95317827 45.43157618 31.80419922 49.8894043 C29.00293614 52.33272414 26.2827435 54.85984945 23.5625 57.39257812 C19.69057778 60.98245832 15.80574641 64.55443279 11.875 68.08007812 C8.1088809 71.45850849 4.35944932 74.85422379 0.625 78.26757812 C-0.34050781 79.14929688 -1.30601563 80.03101563 -2.30078125 80.93945312 C-4.94395153 83.40691053 -7.50567627 85.9607544 -10.0625 88.51757812 C33.4975 88.51757812 77.0575 88.51757812 121.9375 88.51757812 C120.2875 86.86757813 118.6375 85.21757812 116.9375 83.51757812 C116.29167969 82.86015625 115.64585937 82.20273437 114.98046875 81.52539062 C111.20542832 77.69471802 107.33730976 74.06373073 103.26171875 70.55664062 C100.31339578 67.97004468 97.43835394 65.30921098 94.5625 62.64257812 C89.8996093 58.32115162 85.20349373 54.04165043 80.46875 49.79882812 C77.58747953 47.20212758 74.73055115 44.57997304 71.875 41.95507812 C69.89663113 40.14170529 67.91701622 38.32969901 65.9375 36.51757812 C65.04933594 35.7003125 64.16117187 34.88304687 63.24609375 34.04101562 C62.44300781 33.31140625 61.63992187 32.58179688 60.8125 31.83007812 C60.10867187 31.18683594 59.40484375 30.54359375 58.6796875 29.88085938 C55.30481618 27.23998473 54.00452021 29.17559422 51.3046875 31.77148438 Z M-0.0625 104.51757812 C-0.0625 133.55757812 -0.0625 162.59757813 -0.0625 192.51757812 C7.8575 192.51757812 15.7775 192.51757812 23.9375 192.51757812 C23.97488281 188.79863281 24.01226562 185.0796875 24.05078125 181.24804688 C24.09696686 177.65382946 24.14821141 174.05971741 24.19995117 170.46557617 C24.23324471 167.96401348 24.26126268 165.46237486 24.28393555 162.96069336 C24.3173996 159.36864811 24.36971243 155.77730147 24.42578125 152.18554688 C24.43217117 151.06359421 24.4385611 149.94164154 24.44514465 148.78569031 C24.46493881 147.7448378 24.48473297 146.70398529 24.50512695 145.6315918 C24.51623001 144.71447922 24.52733307 143.79736664 24.53877258 142.85246277 C24.9375 140.51757812 24.9375 140.51757812 26.12492371 138.72221375 C28.6219416 137.06269922 30.38238508 137.13668002 33.37109375 137.12939453 C34.48234619 137.11993805 35.59359863 137.11048157 36.73852539 137.10073853 C37.93856201 137.10681122 39.13859863 137.11288391 40.375 137.11914062 C41.60661865 137.11627045 42.8382373 137.11340027 44.10717773 137.11044312 C47.38097957 137.10787655 50.65435537 137.11996203 53.92810059 137.13671875 C55.93560385 137.1425726 57.94271369 137.13674017 59.95019531 137.12646484 C63.80031695 137.10796832 67.64985434 137.1101682 71.5 137.11914062 C73.30005493 137.11003159 73.30005493 137.11003159 75.13647461 137.10073853 C76.80335327 137.11492325 76.80335327 137.11492325 78.50390625 137.12939453 C79.97259155 137.1329747 79.97259155 137.1329747 81.47094727 137.1366272 C83.9375 137.51757812 83.9375 137.51757812 85.75007629 138.72221375 C87.33850185 141.12388607 87.33510056 142.7593844 87.36987305 145.6315918 C87.38966721 146.67244431 87.40946136 147.71329681 87.42985535 148.78569031 C87.43624527 149.90764297 87.44263519 151.02959564 87.44921875 152.18554688 C87.46716995 153.33549637 87.48512115 154.48544586 87.50361633 155.67024231 C87.55786261 159.34848344 87.59166171 163.02659376 87.625 166.70507812 C87.65816034 169.19663285 87.69264878 171.68817027 87.72851562 174.1796875 C87.81610109 180.29233805 87.87605022 186.40438493 87.9375 192.51757812 C95.8575 192.51757812 103.7775 192.51757812 111.9375 192.51757812 C111.9375 163.47757812 111.9375 134.43757812 111.9375 104.51757812 C74.9775 104.51757812 38.0175 104.51757812 -0.0625 104.51757812 Z M39.9375 152.51757812 C39.9375 165.71757812 39.9375 178.91757812 39.9375 192.51757812 C50.4975 192.51757812 61.0575 192.51757812 71.9375 192.51757812 C71.9375 179.31757813 71.9375 166.11757813 71.9375 152.51757812 C61.3775 152.51757812 50.8175 152.51757812 39.9375 152.51757812 Z " fill="#000000" transform="translate(96.0625,223.482421875)"/>
<path d="M0 0 C1.18142578 -0.01891296 1.18142578 -0.01891296 2.38671875 -0.03820801 C3.22847656 -0.03011108 4.07023437 -0.02201416 4.9375 -0.01367188 C5.81019531 -0.01749878 6.68289062 -0.02132568 7.58203125 -0.02526855 C9.42449092 -0.02798678 11.26698924 -0.02063182 13.109375 -0.00390625 C15.92795934 0.01750565 18.74399485 -0.00370989 21.5625 -0.02929688 C23.35417229 -0.02665358 25.14584299 -0.02152857 26.9375 -0.01367188 C27.77925781 -0.0217688 28.62101562 -0.02986572 29.48828125 -0.03820801 C33.30968962 0.02296736 35.3045285 0.05845953 38.46191406 2.34863281 C40.49294589 5.33402109 40.54425955 7.68656693 40.6875 11.26757812 C40.74421875 12.43804687 40.8009375 13.60851562 40.859375 14.81445312 C40.88515625 15.70648438 40.9109375 16.59851563 40.9375 17.51757812 C41.75154297 16.79441406 41.75154297 16.79441406 42.58203125 16.05664062 C43.29746094 15.425 44.01289063 14.79335938 44.75 14.14257812 C45.45769531 13.51609375 46.16539062 12.88960937 46.89453125 12.24414062 C50.4841067 9.21050325 52.97513557 7.87785075 57.76953125 8.01757812 C62.13712511 9.02487905 64.85743585 12.44319675 67.9375 15.51757812 C69.51403631 16.94180499 71.09774039 18.35812672 72.6875 19.76757812 C76.97211123 23.63161402 81.22689781 27.52726614 85.47558594 31.43066406 C88.61345143 34.3112286 91.76736695 37.17258693 94.9375 40.01757812 C99.14434327 43.79295029 103.31424853 47.60738261 107.4765625 51.43164062 C110.61417086 54.31180419 113.76770941 57.17289426 116.9375 60.01757812 C120.62580577 63.32759612 124.28808695 66.66479938 127.9375 70.01757812 C137.8400836 79.13160617 137.8400836 79.13160617 148 87.95507812 C151.68233753 91.16733001 151.85740898 91.52444954 152.25 96.39257812 C152.40266145 99.161541 152.08790487 100.28819547 150.55151367 102.63134766 C146.49656802 105.5573316 142.5489369 104.94460524 137.6875 104.76757812 C136.75164062 104.74953125 135.81578125 104.73148437 134.8515625 104.71289062 C132.54582985 104.66583486 130.24219055 104.60011525 127.9375 104.51757812 C127.94638245 105.7615033 127.95526489 107.00542847 127.9644165 108.28704834 C128.04544139 119.99980306 128.10543621 131.71250105 128.14474869 143.42547226 C128.16563898 149.44750381 128.19398342 155.46930943 128.23925781 161.49121094 C128.2826634 167.30078609 128.30662624 173.1101437 128.31700897 178.91986847 C128.3244098 181.13830237 128.33886157 183.35672413 128.36042023 185.57506561 C128.38938334 188.67823684 128.3934589 191.78050481 128.39160156 194.88378906 C128.40598267 195.80448181 128.42036377 196.72517456 128.43518066 197.67376709 C128.42968201 198.52068115 128.42418335 199.36759521 128.41851807 200.24017334 C128.42220524 200.97392056 128.42589241 201.70766777 128.42969131 202.46364975 C127.70649829 205.48155484 126.38438961 206.65747809 123.9375 208.51757812 C121.33251953 209.02094269 121.33251953 209.02094269 118.3203125 209.0255127 C116.60424805 209.04243164 116.60424805 209.04243164 114.85351562 209.05969238 C113.60248047 209.05159546 112.35144531 209.04349854 111.0625 209.03515625 C109.72850785 209.04057781 108.3945217 209.04770067 107.06054688 209.05639648 C103.44064652 209.07462926 99.82120226 209.06756286 96.20129395 209.05488014 C92.4128293 209.04475208 88.62440368 209.05414527 84.8359375 209.0604248 C78.47388702 209.06770181 72.11202228 209.05811225 65.75 209.0390625 C58.39489863 209.01729349 51.04024077 209.02434484 43.68515015 209.04636812 C37.36994633 209.06452074 31.05487602 209.06708117 24.73965454 209.05661345 C20.96796397 209.05037769 17.19648186 209.04954494 13.42480469 209.0627594 C9.87877647 209.07431547 6.33331997 209.06629756 2.78735352 209.04318237 C0.86540513 209.03537126 -1.05659162 209.04725335 -2.97851562 209.05969238 C-4.12255859 209.04841309 -5.26660156 209.03713379 -6.4453125 209.0255127 C-7.43934082 209.02400459 -8.43336914 209.02249649 -9.45751953 209.02094269 C-12.83321618 208.3686514 -14.01530891 207.24343438 -16.0625 204.51757812 C-16.55469131 202.46364975 -16.55469131 202.46364975 -16.54351807 200.24017334 C-16.54901672 199.39325928 -16.55451538 198.54634521 -16.56018066 197.67376709 C-16.54579956 196.75307434 -16.53141846 195.83238159 -16.51660156 194.88378906 C-16.51718567 193.9078479 -16.51776978 192.93190674 -16.51837158 191.9263916 C-16.51558531 188.70121672 -16.48446686 185.47696652 -16.453125 182.25195312 C-16.44566456 180.01565048 -16.4399707 177.7793413 -16.43597412 175.54302979 C-16.42070238 169.65740913 -16.38140682 163.77218339 -16.3371582 157.88671875 C-16.296239 151.88091372 -16.27797024 145.87504488 -16.2578125 139.86914062 C-16.21491444 128.08511296 -16.14664411 116.30137838 -16.0625 104.51757812 C-16.93986816 104.54899902 -16.93986816 104.54899902 -17.83496094 104.58105469 C-20.49396465 104.66437928 -23.15269355 104.71628709 -25.8125 104.76757812 C-26.73289063 104.80109375 -27.65328125 104.83460937 -28.6015625 104.86914062 C-35.39881558 104.96765154 -35.39881558 104.96765154 -38.671875 102.74804688 C-40.75144518 99.4125565 -40.7863866 96.27273986 -40.0625 92.51757812 C-37.69668844 88.47598338 -34.07439659 85.6923679 -30.54296875 82.67773438 C-26.88582624 79.49285279 -23.34999179 76.17965123 -19.80688477 72.86889648 C-19.01689087 72.13425171 -19.01689087 72.13425171 -18.2109375 71.38476562 C-17.74864746 70.95276855 -17.28635742 70.52077148 -16.81005859 70.07568359 C-15.0625 68.51757812 -15.0625 68.51757812 -11.90722656 66.66674805 C-9.64677102 64.77218177 -9.10902151 63.75207112 -8.52713013 60.81903076 C-8.33628977 57.28769812 -8.33732335 53.79969004 -8.3984375 50.26367188 C-8.3919909 48.28828064 -8.38552351 46.3128892 -8.37781715 44.33750248 C-8.37399918 41.57721961 -8.39670829 38.8174178 -8.42010498 36.05725098 C-8.46010902 31.22279765 -8.4815864 26.38857808 -8.46792603 21.55397034 C-8.46333513 18.98193711 -8.47817584 16.40978174 -8.51425171 13.83799744 C-8.51389923 12.67321365 -8.51354675 11.50842987 -8.51318359 10.30834961 C-8.52239838 9.28418442 -8.53161316 8.26001923 -8.54110718 7.20481873 C-7.68520154 2.3991566 -4.82846873 0.0222809 0 0 Z M7.9375 16.51757812 C7.9375 26.74757813 7.9375 36.97757813 7.9375 47.51757812 C11.37869708 45.79697959 12.85838671 44.80449242 15.375 42.14257812 C17.41789987 39.9906604 19.0852972 38.42744746 21.640625 36.86914062 C24.22075914 34.22757472 24.29025618 33.70571941 24.42578125 30.18945312 C24.39268977 28.54811569 24.33325882 26.90713648 24.25 25.26757812 C24.22744141 24.42710938 24.20488281 23.58664063 24.18164062 22.72070312 C24.12287714 20.65222848 24.03319885 18.58467324 23.9375 16.51757812 C18.6575 16.51757812 13.3775 16.51757812 7.9375 16.51757812 Z M51.3046875 31.77148438 C50.58023438 32.46177734 49.85578125 33.15207031 49.109375 33.86328125 C48.35140625 34.59482422 47.5934375 35.32636719 46.8125 36.08007812 C41.89688049 40.79303613 36.95317827 45.43157618 31.80419922 49.8894043 C29.00293614 52.33272414 26.2827435 54.85984945 23.5625 57.39257812 C19.69057778 60.98245832 15.80574641 64.55443279 11.875 68.08007812 C8.1088809 71.45850849 4.35944932 74.85422379 0.625 78.26757812 C-0.34050781 79.14929688 -1.30601562 80.03101563 -2.30078125 80.93945312 C-4.94395153 83.40691053 -7.50567627 85.9607544 -10.0625 88.51757812 C33.4975 88.51757812 77.0575 88.51757812 121.9375 88.51757812 C120.2875 86.86757812 118.6375 85.21757813 116.9375 83.51757812 C116.29167969 82.86015625 115.64585937 82.20273438 114.98046875 81.52539062 C111.20542832 77.69471802 107.33730976 74.06373073 103.26171875 70.55664062 C100.31339578 67.97004468 97.43835394 65.30921098 94.5625 62.64257812 C89.8996093 58.32115162 85.20349373 54.04165043 80.46875 49.79882812 C77.58747953 47.20212758 74.73055115 44.57997304 71.875 41.95507812 C69.89663113 40.14170529 67.91701622 38.32969901 65.9375 36.51757812 C65.04933594 35.7003125 64.16117187 34.88304687 63.24609375 34.04101562 C62.44300781 33.31140625 61.63992188 32.58179688 60.8125 31.83007812 C60.10867188 31.18683594 59.40484375 30.54359375 58.6796875 29.88085938 C55.30481618 27.23998473 54.00452021 29.17559422 51.3046875 31.77148438 Z M-0.0625 104.51757812 C-0.0625 133.55757812 -0.0625 162.59757813 -0.0625 192.51757812 C7.8575 192.51757812 15.7775 192.51757812 23.9375 192.51757812 C23.97488281 188.79863281 24.01226562 185.0796875 24.05078125 181.24804688 C24.09696686 177.65382946 24.14821141 174.05971741 24.19995117 170.46557617 C24.23324471 167.96401348 24.26126268 165.46237486 24.28393555 162.96069336 C24.3173996 159.36864811 24.36971243 155.77730147 24.42578125 152.18554688 C24.43217117 151.06359421 24.4385611 149.94164154 24.44514465 148.78569031 C24.46493881 147.7448378 24.48473297 146.70398529 24.50512695 145.6315918 C24.51623001 144.71447922 24.52733307 143.79736664 24.53877258 142.85246277 C24.9375 140.51757812 24.9375 140.51757812 26.12492371 138.72221375 C28.6219416 137.06269922 30.38238508 137.13668002 33.37109375 137.12939453 C34.48234619 137.11993805 35.59359863 137.11048157 36.73852539 137.10073853 C37.93856201 137.10681122 39.13859863 137.11288391 40.375 137.11914062 C41.60661865 137.11627045 42.8382373 137.11340027 44.10717773 137.11044312 C47.38097957 137.10787655 50.65435537 137.11996203 53.92810059 137.13671875 C55.93560385 137.1425726 57.94271369 137.13674017 59.95019531 137.12646484 C63.80031695 137.10796832 67.64985434 137.1101682 71.5 137.11914062 C73.30005493 137.11003159 73.30005493 137.11003159 75.13647461 137.10073853 C76.80335327 137.11492325 76.80335327 137.11492325 78.50390625 137.12939453 C79.97259155 137.1329747 79.97259155 137.1329747 81.47094727 137.1366272 C83.9375 137.51757812 83.9375 137.51757812 85.75007629 138.72221375 C87.33850185 141.12388607 87.33510056 142.7593844 87.36987305 145.6315918 C87.38966721 146.67244431 87.40946136 147.71329681 87.42985535 148.78569031 C87.43624527 149.90764297 87.44263519 151.02959564 87.44921875 152.18554688 C87.46716995 153.33549637 87.48512115 154.48544586 87.50361633 155.67024231 C87.55786261 159.34848344 87.59166171 163.02659376 87.625 166.70507812 C87.65816034 169.19663285 87.69264878 171.68817027 87.72851562 174.1796875 C87.81610109 180.29233805 87.87605022 186.40438493 87.9375 192.51757812 C95.8575 192.51757812 103.7775 192.51757812 111.9375 192.51757812 C111.9375 163.47757812 111.9375 134.43757812 111.9375 104.51757812 C74.9775 104.51757812 38.0175 104.51757812 -0.0625 104.51757812 Z M39.9375 152.51757812 C39.9375 165.71757812 39.9375 178.91757813 39.9375 192.51757812 C50.4975 192.51757812 61.0575 192.51757812 71.9375 192.51757812 C71.9375 179.31757813 71.9375 166.11757812 71.9375 152.51757812 C61.3775 152.51757812 50.8175 152.51757812 39.9375 152.51757812 Z " fill="#000000" transform="translate(200.0625,15.482421875)"/>
<path d="M0 0 C1.32 5.28 2.64 10.56 4 16 C2.56269531 16.49628906 1.12539062 16.99257813 -0.35546875 17.50390625 C-19.40121942 23.93992826 -19.40121942 23.93992826 -36 35 C-37.50160448 38.34448288 -37.50160448 38.34448288 -37 42 C-33.18501332 46.49564514 -27.97703054 49.44151552 -22.6875 51.875 C-21.96731689 52.20741699 -21.24713379 52.53983398 -20.50512695 52.88232422 C63.16685544 89.91332942 174.85446512 85.51242975 401.07617188 55.14794922 C408.84114302 52.09927735 417.58113396 48.55695724 423 42 C423.48108188 38.52089776 423.48108188 38.52089776 422 35 C413.00439242 24.63663922 394.47161564 20.22591935 382 16 C383.32 10.72 384.64 5.44 386 0 C395.01373669 1.12671709 395.01373669 1.12671709 398.98828125 2.63671875 C399.85412842 2.96341553 400.71997559 3.2901123 401.61206055 3.62670898 C402.50320557 3.97677002 403.39435059 4.32683105 404.3125 4.6875 C405.24167236 5.04980713 406.17084473 5.41211426 407.12817383 5.78540039 C419.80150277 10.81319464 433.22935789 17.25953361 440.22265625 29.703125 C442.34221846 35.96595205 442.14524266 43.32378379 439.4375 49.375 C431.37482449 62.66451343 416.08067862 69.06588854 402 74 C401.30729004 74.24459961 400.61458008 74.48919922 399.90087891 74.74121094 C363.28851166 87.45510139 323.85529856 92.31982322 285.40515137 95.77996826 C283.04024518 95.99631823 280.67689569 96.22554222 278.31347656 96.45751953 C220.77259516 102.00232693 160.50862477 101.77629356 103 96 C101.15123492 95.82097388 99.30243834 95.64227278 97.45361328 95.46386719 C-25.17561306 83.46842771 -25.17561306 83.46842771 -51.80859375 51.67578125 C-56.1229311 45.60741823 -55.77996999 39.23909647 -55 32 C-53.85213413 28.78700045 -52.2482312 26.54223066 -50 24 C-49.53851563 23.42121094 -49.07703125 22.84242188 -48.6015625 22.24609375 C-38.4573037 10.73725191 -15.24240284 0 0 0 Z " fill="#000000" transform="translate(63,397)"/>
</svg>
